# SSTK version 0.8.0
# 32
mtllib original-32.mtl
o mesh28/mesh28-geometry#mesh28-geometry
v -0.004767 -0.273679 0.179956
v -0.016096 -0.273679 0.179956
v -0.010431 -0.273679 0.179210
v 0.000512 -0.273679 0.182143
v -0.265167 -0.273679 0.114485
v 0.266577 -0.273679 0.114485
v -0.021375 -0.273679 0.182143
v 0.266577 -0.273679 0.324996
v 0.005045 -0.273679 0.185621
v -0.265167 -0.273679 0.324996
v 0.266577 -0.255154 0.114485
v -0.025908 -0.273679 0.185621
v -0.265167 -0.255154 0.324996
v -0.265167 -0.255154 0.114485
v 0.266577 -0.255154 0.324996
v 0.008523 -0.273679 0.190154
v -0.029386 -0.273679 0.190154
v 0.010710 -0.273679 0.195433
v -0.031573 -0.273679 0.195433
v -0.010431 -0.273679 0.222984
v 0.011455 -0.273679 0.201097
v -0.032318 -0.273679 0.201097
v -0.016096 -0.273679 0.222238
v -0.004767 -0.273679 0.222238
v 0.010710 -0.273679 0.206762
v -0.031573 -0.273679 0.206762
v -0.021375 -0.273679 0.220052
v 0.000512 -0.273679 0.220052
v 0.008523 -0.273679 0.212041
v -0.029386 -0.273679 0.212041
v -0.025908 -0.273679 0.216574
v 0.005045 -0.273679 0.216574
vn 0 -1 0
vn 0 1 0
vn 0.5773502691896258 0.5773502691896258 0.5773502691896258
vn -0.5773502691896258 0.5773502691896258 0.5773502691896258
vn -0.5773502691896258 0.5773502691896258 -0.5773502691896258
vn 0.5773502691896258 0.5773502691896258 -0.5773502691896258
vn -0.5773502691896258 -0.5773502691896258 0.5773502691896258
vn 0.5773502691896258 -0.5773502691896258 -0.5773502691896258
vn 0.5773502691896258 -0.5773502691896258 0.5773502691896258
vn -0.5773502691896258 -0.5773502691896258 -0.5773502691896258
usemtl material_0_0
f 1//1 2//1 3//1
f 2//1 1//1 4//1
f 3//2 2//2 1//2
f 4//2 1//2 2//2
f 3//2 5//3 2//2
f 3//2 1//2 5//3
f 4//2 6//4 1//2
f 2//1 4//1 7//1
f 7//2 4//2 2//2
f 2//2 5//3 7//2
f 5//3 1//2 6//4
f 8//5 6//4 4//2
f 7//1 4//1 9//1
f 9//2 4//2 7//2
f 10//6 7//2 5//3
f 6//4 11//7 5//3
f 6//4 8//5 11//7
f 9//2 8//5 4//2
f 7//1 9//1 12//1
f 12//2 9//2 7//2
f 12//2 7//2 10//6
f 10//6 5//3 13//8
f 14//9 5//3 11//7
f 15//10 11//7 8//5
f 16//2 8//5 9//2
f 12//1 9//1 16//1
f 16//2 9//2 12//2
f 17//2 12//2 10//6
f 14//9 13//8 5//3
f 10//6 13//8 8//5
f 14//9 11//7 13//8
f 15//10 13//8 11//7
f 15//10 8//5 13//8
f 18//2 8//5 16//2
f 12//1 16//1 17//1
f 17//2 16//2 12//2
f 19//2 17//2 10//6
f 8//5 20//2 10//6
f 21//2 8//5 18//2
f 17//1 16//1 18//1
f 18//2 16//2 17//2
f 17//1 18//1 19//1
f 19//2 18//2 17//2
f 22//2 19//2 10//6
f 20//2 23//2 10//6
f 20//2 8//5 24//2
f 25//2 8//5 21//2
f 19//1 18//1 21//1
f 21//2 18//2 19//2
f 19//1 21//1 22//1
f 22//2 21//2 19//2
f 26//2 22//2 10//6
f 23//2 27//2 10//6
f 23//1 24//1 20//1
f 20//2 24//2 23//2
f 24//2 8//5 28//2
f 29//2 8//5 25//2
f 22//1 21//1 25//1
f 25//2 21//2 22//2
f 22//1 25//1 26//1
f 26//2 25//2 22//2
f 30//2 26//2 10//6
f 27//2 31//2 10//6
f 27//1 24//1 23//1
f 23//2 24//2 27//2
f 28//2 8//5 32//2
f 27//1 28//1 24//1
f 24//2 28//2 27//2
f 32//2 8//5 29//2
f 26//1 25//1 29//1
f 29//2 25//2 26//2
f 26//1 29//1 30//1
f 30//2 29//2 26//2
f 31//2 30//2 10//6
f 31//1 28//1 27//1
f 27//2 28//2 31//2
f 31//1 32//1 28//1
f 28//2 32//2 31//2
f 30//1 29//1 32//1
f 32//2 29//2 30//2
f 30//1 32//1 31//1
f 31//2 32//2 30//2
usemtl material_1_0
f 2//1 5//10 3//1
f 5//10 1//1 3//1
f 1//1 6//8 4//1
f 7//1 5//10 2//1
f 6//8 1//1 5//10
f 4//1 6//8 8//9
f 5//10 7//1 10//7
f 5//10 11//6 6//8
f 11//6 8//9 6//8
f 4//1 8//9 9//1
f 10//7 7//1 12//1
f 13//4 5//10 10//7
f 11//6 5//10 14//5
f 8//9 11//6 15//3
f 9//1 8//9 16//1
f 10//7 12//1 17//1
f 5//10 13//4 14//5
f 8//9 13//4 10//7
f 13//4 11//6 14//5
f 11//6 13//4 15//3
f 13//4 8//9 15//3
f 16//1 8//9 18//1
f 10//7 17//1 19//1
f 10//7 20//1 8//9
f 18//1 8//9 21//1
f 10//7 19//1 22//1
f 10//7 23//1 20//1
f 24//1 8//9 20//1
f 21//1 8//9 25//1
f 10//7 22//1 26//1
f 10//7 27//1 23//1
f 28//1 8//9 24//1
f 25//1 8//9 29//1
f 10//7 26//1 30//1
f 10//7 31//1 27//1
f 32//1 8//9 28//1
f 29//1 8//9 32//1
f 10//7 30//1 31//1
