# SSTK version 0.8.0
# 2
mtllib original-2.mtl
o Group3/mesh2/mesh2-geometry#mesh2-geometry
v 0.002578 0.835923 -0.506379
v -0.000540 0.781902 -0.498487
v 0.001789 0.835945 -0.506461
v 0.000248 0.781880 -0.498405
v -0.001322 0.781954 -0.498364
v 0.001008 0.835997 -0.506338
v 0.003319 0.835933 -0.506098
v 0.000286 0.836075 -0.506019
v 0.000990 0.781889 -0.498124
v -0.002044 0.782032 -0.498045
v 0.003963 0.835973 -0.505637
v -0.000327 0.836174 -0.505525
v -0.002656 0.782131 -0.497551
v 0.001634 0.781930 -0.497663
v 0.002136 0.781998 -0.497053
v -0.000788 0.836288 -0.504890
v 0.004466 0.836041 -0.505027
v -0.003118 0.782245 -0.496916
v 0.002463 0.782090 -0.496337
v -0.001067 0.836408 -0.504158
v 0.004793 0.836133 -0.504311
v -0.003397 0.782365 -0.496184
v 0.002592 0.782198 -0.495562
v -0.001145 0.836526 -0.503378
v 0.004922 0.836242 -0.503536
v -0.003475 0.782483 -0.495404
v 0.002514 0.782317 -0.494782
v -0.001016 0.836635 -0.502603
v 0.004844 0.836360 -0.502756
v -0.003346 0.782592 -0.494629
v 0.002235 0.782437 -0.494049
v -0.000689 0.836727 -0.501886
v 0.004565 0.836480 -0.502023
v -0.003019 0.782684 -0.493912
v 0.001774 0.782551 -0.493414
v -0.000187 0.836795 -0.501277
v 0.004103 0.836594 -0.501388
v -0.002516 0.782752 -0.493303
v 0.003490 0.836693 -0.500895
v 0.000457 0.836835 -0.500816
v -0.001872 0.782792 -0.492842
v 0.001161 0.782650 -0.492921
v 0.002769 0.836771 -0.500575
v 0.001199 0.836845 -0.500535
v -0.001131 0.782802 -0.492561
v 0.000439 0.782728 -0.492601
v 0.001987 0.836823 -0.500453
v -0.000342 0.782780 -0.492479
vn 0.2270120532714492 -0.15172703560480139 -0.9620002257463663
vn -0.03254399525917011 -0.14451797894741722 -0.9889668559327582
vn -0.2898819904494031 -0.1274599958006393 -0.9485369687490272
vn 0.04260399981695191 0.9883909957533781 -0.14583599937341563
vn 0.4710970164295087 -0.14859600518228577 -0.8694750303229422
vn -0.04260399981695191 -0.9883909957533781 0.14583599937341563
vn -0.5274648503397819 -0.1017169711393393 -0.8434657606792764
vn 0.6830780862655954 -0.13533901709189786 -0.7176960906374862
vn -0.7291019046768586 -0.0690409909735469 -0.6809139109769806
vn 0.848507988845514 -0.11285799851636875 -0.517007993203413
vn -0.8810518766593539 -0.03165999556783839 -0.47195893392929367
vn 0.9561138589789528 -0.0826859878043138 -0.28108595854151064
vn -0.9729596148223916 0.007877996881239515 -0.23084090861414205
vn 0.9985618650318911 -0.04687999366358329 -0.026008996484559257
vn -0.9985618650318911 0.04687999366358329 0.026008996484559257
vn 0.9729596148223916 -0.007877996881239515 0.23084090861414205
vn -0.9561138589789528 0.0826859878043138 0.28108595854151064
vn 0.8810518766593539 0.03165999556783839 0.47195893392929367
vn -0.848507988845514 0.11285799851636875 0.517007993203413
vn 0.7291019046768586 0.0690409909735469 0.6809139109769806
vn -0.6830780862655954 0.13533901709189786 0.7176960906374862
vn 0.5274648503397819 0.1017169711393393 0.8434657606792764
vn -0.4710970164295087 0.14859600518228577 0.8694750303229422
vn 0.2898819904494031 0.1274599958006393 0.9485369687490272
vn -0.2270120532714492 0.15172703560480139 0.9620002257463663
vn 0.03254399525917011 0.14451797894741722 0.9889668559327582
usemtl material_0_0
f 1//1 2//2 3//2
f 2//2 1//1 4//1
f 5//3 3//2 2//2
f 6//4 1//4 3//4
f 7//5 4//1 1//1
f 4//6 5//6 2//6
f 3//2 5//3 6//3
f 1//4 6//4 8//4
f 4//1 7//5 9//5
f 1//4 8//4 7//4
f 5//6 4//6 9//6
f 10//7 6//3 5//3
f 6//3 10//7 8//7
f 11//8 9//5 7//5
f 7//4 8//4 12//4
f 5//6 9//6 10//6
f 13//9 8//7 10//7
f 9//5 11//8 14//8
f 7//4 12//4 11//4
f 8//7 13//9 12//9
f 10//6 9//6 14//6
f 10//6 14//6 13//6
f 11//8 15//10 14//8
f 11//4 12//4 16//4
f 13//9 16//11 12//9
f 13//6 14//6 15//6
f 15//10 11//8 17//10
f 11//4 16//4 17//4
f 16//11 13//9 18//11
f 13//6 15//6 18//6
f 17//10 19//12 15//10
f 17//4 16//4 20//4
f 18//11 20//13 16//11
f 18//6 15//6 19//6
f 19//12 17//10 21//12
f 17//4 20//4 21//4
f 20//13 18//11 22//13
f 18//6 19//6 22//6
f 21//12 23//14 19//12
f 21//4 20//4 24//4
f 22//13 24//15 20//13
f 22//6 19//6 23//6
f 23//14 21//12 25//14
f 21//4 24//4 25//4
f 24//15 22//13 26//15
f 22//6 23//6 26//6
f 25//14 27//16 23//14
f 25//4 24//4 28//4
f 26//15 28//17 24//15
f 26//6 23//6 27//6
f 27//16 25//14 29//16
f 25//4 28//4 29//4
f 28//17 26//15 30//17
f 26//6 27//6 30//6
f 29//16 31//18 27//16
f 29//4 28//4 32//4
f 30//17 32//19 28//17
f 30//6 27//6 31//6
f 31//18 29//16 33//18
f 29//4 32//4 33//4
f 32//19 30//17 34//19
f 30//6 31//6 34//6
f 33//18 35//20 31//18
f 33//4 32//4 36//4
f 34//19 36//21 32//19
f 34//6 31//6 35//6
f 35//20 33//18 37//20
f 33//4 36//4 37//4
f 36//21 34//19 38//21
f 34//6 35//6 38//6
f 39//22 35//20 37//20
f 37//4 36//4 40//4
f 41//23 36//21 38//21
f 38//6 35//6 42//6
f 35//20 39//22 42//22
f 37//4 40//4 39//4
f 36//21 41//23 40//23
f 38//6 42//6 41//6
f 43//24 42//22 39//22
f 39//4 40//4 44//4
f 45//25 40//23 41//23
f 41//6 42//6 46//6
f 42//22 43//24 46//24
f 39//4 44//4 43//4
f 40//23 45//25 44//25
f 41//6 46//6 45//6
f 47//26 46//24 43//24
f 43//4 44//4 47//4
f 48//26 44//25 45//25
f 45//6 46//6 48//6
f 46//24 47//26 48//26
f 44//25 48//26 47//26
usemtl material_1_0
f 3//26 2//26 1//25
f 4//25 1//25 2//26
f 2//26 3//26 5//24
f 3//6 1//6 6//6
f 1//25 4//25 7//23
f 2//4 5//4 4//4
f 6//24 5//24 3//26
f 8//6 6//6 1//6
f 9//23 7//23 4//25
f 7//6 8//6 1//6
f 9//4 4//4 5//4
f 5//24 6//24 10//22
f 8//22 10//22 6//24
f 7//23 9//23 11//21
f 12//6 8//6 7//6
f 10//4 9//4 5//4
f 10//22 8//22 13//20
f 14//21 11//21 9//23
f 11//6 12//6 7//6
f 12//20 13//20 8//22
f 14//4 9//4 10//4
f 13//4 14//4 10//4
f 14//21 15//19 11//21
f 16//6 12//6 11//6
f 12//20 16//18 13//20
f 15//4 14//4 13//4
f 17//19 11//21 15//19
f 17//6 16//6 11//6
f 18//18 13//20 16//18
f 18//4 15//4 13//4
f 15//19 19//17 17//19
f 20//6 16//6 17//6
f 16//18 20//16 18//18
f 19//4 15//4 18//4
f 21//17 17//19 19//17
f 21//6 20//6 17//6
f 22//16 18//18 20//16
f 22//4 19//4 18//4
f 19//17 23//15 21//17
f 24//6 20//6 21//6
f 20//16 24//14 22//16
f 23//4 19//4 22//4
f 25//15 21//17 23//15
f 25//6 24//6 21//6
f 26//14 22//16 24//14
f 26//4 23//4 22//4
f 23//15 27//13 25//15
f 28//6 24//6 25//6
f 24//14 28//12 26//14
f 27//4 23//4 26//4
f 29//13 25//15 27//13
f 29//6 28//6 25//6
f 30//12 26//14 28//12
f 30//4 27//4 26//4
f 27//13 31//11 29//13
f 32//6 28//6 29//6
f 28//12 32//10 30//12
f 31//4 27//4 30//4
f 33//11 29//13 31//11
f 33//6 32//6 29//6
f 34//10 30//12 32//10
f 34//4 31//4 30//4
f 31//11 35//9 33//11
f 36//6 32//6 33//6
f 32//10 36//8 34//10
f 35//4 31//4 34//4
f 37//9 33//11 35//9
f 37//6 36//6 33//6
f 38//8 34//10 36//8
f 38//4 35//4 34//4
f 37//9 35//9 39//7
f 40//6 36//6 37//6
f 38//8 36//8 41//5
f 42//4 35//4 38//4
f 42//7 39//7 35//9
f 39//6 40//6 37//6
f 40//5 41//5 36//8
f 41//4 42//4 38//4
f 39//7 42//7 43//3
f 44//6 40//6 39//6
f 41//5 40//5 45//1
f 46//4 42//4 41//4
f 46//3 43//3 42//7
f 43//6 44//6 39//6
f 44//1 45//1 40//5
f 45//4 46//4 41//4
f 43//3 46//3 47//2
f 47//6 44//6 43//6
f 45//1 44//1 48//2
f 48//4 46//4 45//4
f 48//2 47//2 46//3
f 47//2 48//2 44//1
