# SSTK version 0.8.0
# 7
mtllib original-7.mtl
o mesh6/mesh6-geometry#mesh6-geometry
v -0.002426 -0.749321 0.538789
v 0.010761 -0.747758 0.549028
v 0.010761 -0.749321 0.538789
v -0.002426 -0.747758 0.549028
v 0.010761 -0.837972 0.538789
v -0.002426 -0.753906 0.529248
v -0.002426 -0.837972 0.538789
v 0.010761 -0.749321 0.559267
v 0.010761 -0.833388 0.529248
v 0.010761 -0.839536 0.549028
v 0.010761 -0.753906 0.529248
v -0.002426 -0.833388 0.529248
v -0.002426 -0.839536 0.549028
v -0.002426 -0.749321 0.559267
v -0.002426 -0.761198 0.521055
v 0.010761 -0.753906 0.568808
v 0.010761 -0.837972 0.559267
v 0.010761 -0.826095 0.521055
v -0.002426 -0.837972 0.559267
v 0.010761 -0.761198 0.521055
v -0.002426 -0.826095 0.521055
v -0.002426 -0.753906 0.568808
v 0.010761 -0.770702 0.514768
v -0.002426 -0.770702 0.514768
v 0.010761 -0.761198 0.577001
v 0.010761 -0.833388 0.568808
v -0.002426 -0.833388 0.568808
v 0.010761 -0.816591 0.514768
v -0.002426 -0.816591 0.514768
v -0.002426 -0.761198 0.577001
v 0.010761 -0.781770 0.510816
v 0.010761 -0.805524 0.510816
v -0.002426 -0.781770 0.510816
v -0.002426 -0.770702 0.583288
v 0.010761 -0.826095 0.577001
v -0.002426 -0.826095 0.577001
v -0.002426 -0.805524 0.510816
v 0.010761 -0.770702 0.583288
v 0.010761 -0.793647 0.509468
v -0.002426 -0.793647 0.509468
v 0.010761 -0.781770 0.587240
v -0.002426 -0.816591 0.583288
v 0.010761 -0.816591 0.583288
v -0.002426 -0.781770 0.587240
v -0.002426 -0.805524 0.587240
v 0.010761 -0.793647 0.588587
v 0.010761 -0.805524 0.587240
v -0.002426 -0.793647 0.588587
vn 0 0.9743439832256943 -0.2250639961252983
vn 0 1 0
vn 1 0 0
vn 0 0.8952436945138081 -0.44557684795472413
vn -1 0 0
vn 0 0.9743439832256943 0.2250639961252983
vn 0 -0.9743439832256943 -0.2250639961252983
vn 0 -0.8952436945138081 -0.44557684795472413
vn 0 -1 0
vn 0 0.7574097910685379 -0.6529398198865755
vn 0 0.8952436945138081 0.44557684795472413
vn 0 -0.9743439832256943 0.2250639961252983
vn 0 -0.7574097910685379 -0.6529398198865755
vn 0 0.5564590321894866 -0.8308750480636303
vn 0 0.7574097910685379 0.6529398198865755
vn 0 -0.8952436945138081 0.44557684795472413
vn 0 -0.5564590321894866 -0.8308750480636303
vn 0 0.29681408832876927 -0.9549352841787558
vn 0 0.5564590321894866 0.8308750480636303
vn 0 -0.7574097910685379 0.6529398198865755
vn 0 -0.29681408832876927 -0.9549352841787558
vn 0 0 -1
vn 0 0.29681408832876927 0.9549352841787558
vn 0 -0.5564590321894866 0.8308750480636303
vn 0 0 1
vn 0 -0.29681408832876927 0.9549352841787558
usemtl material_0_0
f 1//1 2//2 3//1
f 2//2 1//1 4//2
f 5//3 3//3 2//3
f 3//1 6//4 1//1
f 1//5 7//5 4//5
f 4//2 8//6 2//2
f 9//3 3//3 5//3
f 5//3 2//3 10//3
f 6//4 3//1 11//4
f 6//5 12//5 1//5
f 1//5 12//5 7//5
f 4//5 7//5 13//5
f 8//6 4//2 14//6
f 10//3 2//3 8//3
f 9//3 11//3 3//3
f 7//7 9//8 5//7
f 13//9 5//7 10//9
f 11//4 15//10 6//4
f 15//5 12//5 6//5
f 9//8 7//7 12//8
f 5//7 13//9 7//7
f 4//5 13//5 14//5
f 14//6 16//11 8//6
f 10//3 8//3 17//3
f 18//3 11//3 9//3
f 10//9 19//12 13//9
f 15//10 11//4 20//10
f 15//5 21//5 12//5
f 12//8 18//13 9//8
f 14//5 13//5 19//5
f 16//11 14//6 22//11
f 17//3 8//3 16//3
f 19//12 10//9 17//12
f 18//3 20//3 11//3
f 23//14 15//10 20//10
f 24//5 21//5 15//5
f 18//13 12//8 21//13
f 14//5 19//5 22//5
f 22//11 25//15 16//11
f 17//3 16//3 26//3
f 17//12 27//16 19//12
f 28//3 20//3 18//3
f 15//10 23//14 24//14
f 28//3 23//3 20//3
f 24//5 29//5 21//5
f 29//17 18//13 21//13
f 22//5 19//5 27//5
f 25//15 22//11 30//15
f 26//3 16//3 25//3
f 27//16 17//12 26//16
f 18//13 29//17 28//17
f 31//18 24//14 23//14
f 32//3 23//3 28//3
f 33//5 29//5 24//5
f 22//5 27//5 30//5
f 34//19 25//15 30//15
f 26//3 25//3 35//3
f 26//16 36//20 27//16
f 37//21 28//17 29//17
f 24//14 31//18 33//18
f 32//3 31//3 23//3
f 28//17 37//21 32//21
f 33//5 37//5 29//5
f 30//5 27//5 36//5
f 25//15 34//19 38//19
f 30//5 36//5 34//5
f 35//3 25//3 38//3
f 36//20 26//16 35//20
f 39//22 33//18 31//18
f 31//3 32//3 39//3
f 37//21 39//22 32//21
f 37//5 33//5 40//5
f 34//19 41//23 38//19
f 34//5 36//5 42//5
f 35//3 38//3 43//3
f 35//20 42//24 36//20
f 33//18 39//22 40//22
f 39//22 37//21 40//22
f 41//23 34//19 44//23
f 43//3 38//3 41//3
f 34//5 42//5 45//5
f 42//24 35//20 43//24
f 34//5 45//5 44//5
f 44//23 46//25 41//23
f 43//3 41//3 47//3
f 43//24 45//26 42//24
f 44//5 45//5 48//5
f 46//25 44//23 48//25
f 47//3 41//3 46//3
f 45//26 43//24 47//26
f 45//26 46//25 48//25
f 46//25 45//26 47//26
usemtl material_1_0
f 3//12 2//9 1//12
f 4//9 1//12 2//9
f 2//5 3//5 5//5
f 1//12 6//16 3//12
f 4//3 7//3 1//3
f 2//9 8//7 4//9
f 5//5 3//5 9//5
f 10//5 2//5 5//5
f 11//16 3//12 6//16
f 1//3 12//3 6//3
f 7//3 12//3 1//3
f 13//3 7//3 4//3
f 14//7 4//9 8//7
f 8//5 2//5 10//5
f 3//5 11//5 9//5
f 5//6 9//11 7//6
f 10//2 5//6 13//2
f 6//16 15//20 11//16
f 6//3 12//3 15//3
f 12//11 7//6 9//11
f 7//6 13//2 5//6
f 14//3 13//3 4//3
f 8//7 16//8 14//7
f 17//5 8//5 10//5
f 9//5 11//5 18//5
f 13//2 19//1 10//2
f 20//20 11//16 15//20
f 12//3 21//3 15//3
f 9//11 18//15 12//11
f 19//3 13//3 14//3
f 22//8 14//7 16//8
f 16//5 8//5 17//5
f 17//1 10//2 19//1
f 11//5 20//5 18//5
f 20//20 15//20 23//24
f 15//3 21//3 24//3
f 21//15 12//11 18//15
f 22//3 19//3 14//3
f 16//8 25//13 22//8
f 26//5 16//5 17//5
f 19//1 27//4 17//1
f 18//5 20//5 28//5
f 24//24 23//24 15//20
f 20//5 23//5 28//5
f 21//3 29//3 24//3
f 21//15 18//15 29//19
f 27//3 19//3 22//3
f 30//13 22//8 25//13
f 25//5 16//5 26//5
f 26//4 17//1 27//4
f 28//19 29//19 18//15
f 23//24 24//24 31//26
f 28//5 23//5 32//5
f 24//3 29//3 33//3
f 30//3 27//3 22//3
f 30//13 25//13 34//17
f 35//5 25//5 26//5
f 27//4 36//10 26//4
f 29//19 28//19 37//23
f 33//26 31//26 24//24
f 23//5 31//5 32//5
f 32//23 37//23 28//19
f 29//3 37//3 33//3
f 36//3 27//3 30//3
f 38//17 34//17 25//13
f 34//3 36//3 30//3
f 38//5 25//5 35//5
f 35//10 26//4 36//10
f 31//26 33//26 39//25
f 39//5 32//5 31//5
f 32//23 39//25 37//23
f 40//3 33//3 37//3
f 38//17 41//21 34//17
f 42//3 36//3 34//3
f 43//5 38//5 35//5
f 36//10 42//14 35//10
f 40//25 39//25 33//26
f 40//25 37//23 39//25
f 44//21 34//17 41//21
f 41//5 38//5 43//5
f 45//3 42//3 34//3
f 43//14 35//10 42//14
f 44//3 45//3 34//3
f 41//21 46//22 44//21
f 47//5 41//5 43//5
f 42//14 45//18 43//14
f 48//3 45//3 44//3
f 48//22 44//21 46//22
f 46//5 41//5 47//5
f 47//18 43//14 45//18
f 48//22 46//22 45//18
f 47//18 45//18 46//22
