# SSTK version 0.8.0
# 9
mtllib original-9.mtl
o mesh8/mesh8-geometry#mesh8-geometry
v 0.327618 -0.749321 0.197496
v 0.320936 -0.747758 0.212795
v 0.332516 -0.747758 0.206488
v 0.316038 -0.749321 0.203804
v 0.325834 -0.749321 0.221787
v 0.332516 -0.839536 0.206488
v 0.323054 -0.753906 0.189118
v 0.320936 -0.839536 0.212795
v 0.337414 -0.749321 0.215479
v 0.325834 -0.837972 0.221787
v 0.327618 -0.837972 0.197496
v 0.337414 -0.837972 0.215479
v 0.311474 -0.753906 0.195425
v 0.323054 -0.833388 0.189118
v 0.316038 -0.837972 0.203804
v 0.330398 -0.753906 0.230165
v 0.330398 -0.833388 0.230165
v 0.319135 -0.761198 0.181923
v 0.319135 -0.826095 0.181923
v 0.341978 -0.753906 0.223858
v 0.341978 -0.833388 0.223858
v 0.307555 -0.761198 0.188231
v 0.311474 -0.833388 0.195425
v 0.334317 -0.761198 0.237360
v 0.334317 -0.826095 0.237360
v 0.316128 -0.770702 0.176402
v 0.316128 -0.816591 0.176402
v 0.307555 -0.826095 0.188231
v 0.345897 -0.761198 0.231053
v 0.345897 -0.826095 0.231053
v 0.304548 -0.770702 0.182710
v 0.337324 -0.770702 0.242881
v 0.337324 -0.816591 0.242881
v 0.302658 -0.781770 0.179239
v 0.314238 -0.805524 0.172931
v 0.304548 -0.816591 0.182710
v 0.348904 -0.770702 0.236573
v 0.348904 -0.816591 0.236573
v 0.314238 -0.781770 0.172931
v 0.339215 -0.781770 0.246352
v 0.339215 -0.805524 0.246352
v 0.350795 -0.805524 0.240044
v 0.302013 -0.793647 0.178055
v 0.302658 -0.805524 0.179239
v 0.313593 -0.793647 0.171748
v 0.350795 -0.781770 0.240044
v 0.339859 -0.793647 0.247536
v 0.351439 -0.793647 0.241228
vn -0.10765997567094761 0.9743437798173302 -0.1976449553360992
vn 0 1 0
vn 0.10765997567094761 0.9743437798173302 0.1976449553360992
vn 0.8781687928566915 0 -0.4783508871661278
vn -0.21314191890335182 0.8952436593759667 -0.39129185112052217
vn -0.8781687928566915 0 0.4783508871661278
vn 0.21314191890335182 0.8952436593759667 0.39129185112052217
vn 0 -1 0
vn -0.10765997567094761 -0.9743437798173302 -0.1976449553360992
vn 0.10765997567094761 -0.9743437798173302 0.1976449553360992
vn -0.31233405082659277 0.7574101232544956 -0.5733910933088003
vn 0.21314191890335182 -0.8952436593759667 0.39129185112052217
vn -0.21314191890335182 -0.8952436593759667 -0.39129185112052217
vn -0.31233405082659277 -0.7574101232544956 -0.5733910933088003
vn 0.31233405082659277 0.7574101232544956 0.5733910933088003
vn -0.39744984412377876 0.5564587817619168 -0.7296487138383974
vn 0.31233405082659277 -0.7574101232544956 0.5733910933088003
vn -0.39744984412377876 -0.5564587817619168 -0.7296487138383974
vn 0.39744984412377876 0.5564587817619168 0.7296487138383974
vn -0.45679379831256395 0.29681386894824663 -0.8385946297366528
vn 0.39744984412377876 -0.5564587817619168 0.7296487138383974
vn -0.45679379831256395 -0.29681386894824663 -0.8385946297366528
vn 0.45679379831256395 0.29681386894824663 0.8385946297366528
vn 0.45679379831256395 -0.29681386894824663 0.8385946297366528
vn -0.4783508871661278 0 -0.8781687928566915
vn 0.4783508871661278 0 0.8781687928566915
usemtl material_0_0
f 1//1 2//2 3//2
f 2//2 1//1 4//1
f 5//3 3//2 2//2
f 6//4 1//4 3//4
f 7//5 4//1 1//1
f 4//6 8//6 2//6
f 3//2 5//3 9//3
f 2//6 10//6 5//6
f 11//4 1//4 6//4
f 6//4 3//4 12//4
f 4//1 7//5 13//5
f 14//4 7//4 1//4
f 4//6 15//6 8//6
f 2//6 8//6 10//6
f 16//7 9//3 5//3
f 12//4 3//4 9//4
f 5//6 10//6 17//6
f 14//4 1//4 11//4
f 8//8 11//9 6//8
f 10//10 6//8 12//10
f 18//11 13//5 7//5
f 13//6 15//6 4//6
f 19//4 7//4 14//4
f 11//9 8//8 15//9
f 6//8 10//10 8//8
f 9//3 16//7 20//7
f 5//6 17//6 16//6
f 12//4 9//4 21//4
f 12//10 17//12 10//10
f 15//9 14//13 11//9
f 13//5 18//11 22//11
f 19//4 18//4 7//4
f 13//6 23//6 15//6
f 23//13 19//14 14//13
f 24//15 20//7 16//7
f 21//4 9//4 20//4
f 16//6 17//6 25//6
f 17//12 12//10 21//12
f 14//13 15//9 23//13
f 26//16 22//11 18//11
f 22//6 23//6 13//6
f 27//4 18//4 19//4
f 19//14 23//13 28//14
f 20//7 24//15 29//15
f 16//6 25//6 24//6
f 21//4 20//4 30//4
f 21//12 25//17 17//12
f 22//11 26//16 31//16
f 27//4 26//4 18//4
f 22//6 28//6 23//6
f 28//14 27//18 19//14
f 32//19 29//15 24//15
f 30//4 20//4 29//4
f 24//6 25//6 33//6
f 25//17 21//12 30//17
f 26//16 34//20 31//16
f 31//6 28//6 22//6
f 35//4 26//4 27//4
f 27//18 28//14 36//18
f 29//15 32//19 37//19
f 24//6 33//6 32//6
f 30//4 29//4 38//4
f 25//17 38//21 33//21
f 38//21 25//17 30//17
f 34//20 26//16 39//20
f 34//6 36//6 31//6
f 31//6 36//6 28//6
f 35//4 39//4 26//4
f 36//18 35//22 27//18
f 40//23 37//19 32//19
f 38//4 29//4 37//4
f 32//6 33//6 41//6
f 42//24 33//21 38//21
f 39//20 43//25 34//20
f 34//6 44//6 36//6
f 39//4 35//4 45//4
f 35//22 36//18 44//22
f 37//19 40//23 46//23
f 32//6 41//6 40//6
f 38//4 37//4 46//4
f 33//21 42//24 41//24
f 38//4 46//4 42//4
f 43//25 39//20 45//25
f 44//6 34//6 43//6
f 35//22 43//25 45//25
f 43//25 35//22 44//22
f 47//26 46//23 40//23
f 40//6 41//6 47//6
f 42//24 47//26 41//24
f 42//4 46//4 48//4
f 46//23 47//26 48//26
f 47//26 42//24 48//26
usemtl material_1_0
f 3//8 2//8 1//10
f 4//10 1//10 2//8
f 2//8 3//8 5//9
f 3//6 1//6 6//6
f 1//10 4//10 7//12
f 2//4 8//4 4//4
f 9//9 5//9 3//8
f 5//4 10//4 2//4
f 6//6 1//6 11//6
f 12//6 3//6 6//6
f 13//12 7//12 4//10
f 1//6 7//6 14//6
f 8//4 15//4 4//4
f 10//4 8//4 2//4
f 5//9 9//9 16//13
f 9//6 3//6 12//6
f 17//4 10//4 5//4
f 11//6 1//6 14//6
f 6//2 11//3 8//2
f 12//1 6//2 10//1
f 7//12 13//12 18//17
f 4//4 15//4 13//4
f 14//6 7//6 19//6
f 15//3 8//2 11//3
f 8//2 10//1 6//2
f 20//13 16//13 9//9
f 16//4 17//4 5//4
f 21//6 9//6 12//6
f 10//1 17//5 12//1
f 11//3 14//7 15//3
f 22//17 18//17 13//12
f 7//6 18//6 19//6
f 15//4 23//4 13//4
f 14//7 19//15 23//7
f 16//13 20//13 24//14
f 20//6 9//6 21//6
f 25//4 17//4 16//4
f 21//5 12//1 17//5
f 23//7 15//3 14//7
f 18//17 22//17 26//21
f 13//4 23//4 22//4
f 19//6 18//6 27//6
f 28//15 23//7 19//15
f 29//14 24//14 20//13
f 24//4 25//4 16//4
f 30//6 20//6 21//6
f 17//5 25//11 21//5
f 31//21 26//21 22//17
f 18//6 26//6 27//6
f 23//4 28//4 22//4
f 19//15 27//19 28//15
f 24//14 29//14 32//18
f 29//6 20//6 30//6
f 33//4 25//4 24//4
f 30//11 21//5 25//11
f 31//21 34//24 26//21
f 22//4 28//4 31//4
f 27//6 26//6 35//6
f 36//19 28//15 27//19
f 37//18 32//18 29//14
f 32//4 33//4 24//4
f 38//6 29//6 30//6
f 33//16 38//16 25//11
f 30//11 25//11 38//16
f 39//24 26//21 34//24
f 31//4 36//4 34//4
f 28//4 36//4 31//4
f 26//6 39//6 35//6
f 27//19 35//23 36//19
f 32//18 37//18 40//22
f 37//6 29//6 38//6
f 41//4 33//4 32//4
f 38//16 33//16 42//20
f 34//24 43//26 39//24
f 36//4 44//4 34//4
f 45//6 35//6 39//6
f 44//23 36//19 35//23
f 46//22 40//22 37//18
f 40//4 41//4 32//4
f 46//6 37//6 38//6
f 41//20 42//20 33//16
f 42//6 46//6 38//6
f 45//26 39//24 43//26
f 43//4 34//4 44//4
f 45//26 43//26 35//23
f 44//23 35//23 43//26
f 40//22 46//22 47//25
f 47//4 41//4 40//4
f 41//20 47//25 42//20
f 48//6 46//6 42//6
f 48//25 47//25 46//22
f 48//25 42//20 47//25
