# SSTK version 0.8.0
# 8
mtllib original-8.mtl
o mesh7/mesh7-geometry#mesh7-geometry
v 0.335210 -0.710497 0.190516
v 0.338633 -0.793647 0.190151
v 0.335210 -0.793647 0.190516
v 0.338633 -0.710497 0.190151
v 0.337979 -0.793647 0.216516
v 0.331998 -0.710497 0.191754
v 0.337979 -0.710497 0.216516
v 0.342034 -0.793647 0.190685
v 0.341402 -0.793647 0.216152
v 0.334578 -0.793647 0.215982
v 0.331998 -0.793647 0.191754
v 0.334578 -0.710497 0.215982
v 0.341402 -0.710497 0.216152
v 0.342034 -0.710497 0.190685
v 0.329216 -0.710497 0.193781
v 0.331431 -0.710497 0.214586
v 0.345181 -0.793647 0.192081
v 0.344614 -0.793647 0.214914
v 0.344614 -0.710497 0.214914
v 0.331431 -0.793647 0.214586
v 0.329216 -0.793647 0.193781
v 0.345181 -0.710497 0.192081
v 0.327053 -0.793647 0.196459
v 0.328753 -0.710497 0.212424
v 0.328753 -0.793647 0.212424
v 0.347859 -0.793647 0.194244
v 0.347396 -0.793647 0.212887
v 0.347396 -0.710497 0.212887
v 0.327053 -0.710497 0.196459
v 0.347859 -0.710497 0.194244
v 0.325658 -0.793647 0.199606
v 0.326726 -0.793647 0.209642
v 0.326726 -0.710497 0.209642
v 0.349886 -0.710497 0.197026
v 0.349559 -0.793647 0.210208
v 0.325658 -0.710497 0.199606
v 0.349559 -0.710497 0.210208
v 0.349886 -0.793647 0.197026
v 0.325124 -0.793647 0.203006
v 0.325488 -0.793647 0.206430
v 0.325488 -0.710497 0.206430
v 0.351124 -0.710497 0.200238
v 0.350955 -0.710497 0.207062
v 0.350955 -0.793647 0.207062
v 0.325124 -0.710497 0.203006
v 0.351124 -0.793647 0.200238
v 0.351489 -0.710497 0.203661
v 0.351489 -0.793647 0.203661
vn -0.23476409080676786 0 -0.9720523759899317
vn 0.024820997804520788 0 -0.9996919115747551
vn 0 -1 0
vn -0.4783508871661278 0 -0.8781687928566915
vn 0 1 0
vn 0.28271406793450243 0 -0.959204230491049
vn 0.23476409080676786 0 0.9720523759899317
vn -0.024820997804520788 0 0.9996919115747551
vn -0.28271406793450243 0 0.959204230491049
vn -0.6893379338773299 0 -0.7244399305102762
vn 0.5213411961846391 0 -0.8533483211214337
vn 0.4783508871661278 0 0.8781687928566915
vn -0.5213411961846391 0 0.8533483211214337
vn -0.8533483211214337 0 -0.5213411961846391
vn -0.7244399305102762 0 0.6893379338773299
vn 0.7244399305102762 0 -0.6893379338773299
vn 0.6893379338773299 0 0.7244399305102762
vn -0.959204230491049 0 -0.28271406793450243
vn -0.8781687928566915 0 0.4783508871661278
vn 0.8781687928566915 0 -0.4783508871661278
vn 0.8533483211214337 0 0.5213411961846391
vn -0.9996919115747551 0 -0.024820997804520788
vn -0.9720523759899317 0 0.23476409080676786
vn 0.9720523759899317 0 -0.23476409080676786
vn 0.959204230491049 0 0.28271406793450243
vn 0.9996919115747551 0 0.024820997804520788
usemtl material_0_0
f 1//1 2//2 3//1
f 2//2 1//1 4//2
f 2//3 5//3 3//3
f 3//1 6//4 1//1
f 7//5 4//5 1//5
f 4//2 8//6 2//2
f 2//3 9//3 5//3
f 3//3 5//3 10//3
f 6//4 3//1 11//4
f 12//5 1//5 6//5
f 13//5 4//5 7//5
f 7//5 1//5 12//5
f 8//6 4//2 14//6
f 8//3 9//3 2//3
f 13//7 5//8 9//7
f 7//8 10//9 5//8
f 3//3 10//3 11//3
f 11//4 15//10 6//4
f 12//5 6//5 16//5
f 13//5 14//5 4//5
f 5//8 13//7 7//8
f 10//9 7//8 12//9
f 14//6 17//11 8//6
f 8//3 18//3 9//3
f 9//7 19//12 13//7
f 11//3 10//3 20//3
f 15//10 11//4 21//10
f 16//5 6//5 15//5
f 20//13 12//9 16//13
f 19//5 14//5 13//5
f 12//9 20//13 10//9
f 17//11 14//6 22//11
f 17//3 18//3 8//3
f 19//12 9//7 18//12
f 11//3 20//3 21//3
f 23//14 15//10 21//10
f 16//5 15//5 24//5
f 16//13 25//15 20//13
f 19//5 22//5 14//5
f 22//11 26//16 17//11
f 17//3 27//3 18//3
f 18//12 28//17 19//12
f 21//3 20//3 25//3
f 15//10 23//14 29//14
f 21//3 25//3 23//3
f 24//5 15//5 29//5
f 25//15 16//13 24//15
f 28//5 22//5 19//5
f 26//16 22//11 30//16
f 26//3 27//3 17//3
f 28//17 18//12 27//17
f 31//18 29//14 23//14
f 23//3 25//3 32//3
f 24//5 29//5 33//5
f 33//19 25//15 24//15
f 28//5 30//5 22//5
f 34//20 26//16 30//16
f 26//3 35//3 27//3
f 35//21 28//17 27//17
f 29//14 31//18 36//18
f 23//3 32//3 31//3
f 25//15 33//19 32//19
f 33//5 29//5 36//5
f 37//5 30//5 28//5
f 26//16 34//20 38//20
f 37//5 34//5 30//5
f 38//3 35//3 26//3
f 28//17 35//21 37//21
f 39//22 36//18 31//18
f 31//3 32//3 40//3
f 41//23 32//19 33//19
f 33//5 36//5 41//5
f 42//24 38//20 34//20
f 43//5 34//5 37//5
f 38//3 44//3 35//3
f 44//25 37//21 35//21
f 36//18 39//22 45//22
f 31//3 40//3 39//3
f 32//19 41//23 40//23
f 41//5 36//5 45//5
f 38//20 42//24 46//24
f 43//5 42//5 34//5
f 37//21 44//25 43//25
f 46//3 44//3 38//3
f 40//23 45//22 39//22
f 45//22 40//23 41//23
f 47//26 46//24 42//24
f 42//5 43//5 47//5
f 48//26 43//25 44//25
f 44//3 46//3 48//3
f 46//24 47//26 48//26
f 43//25 48//26 47//26
usemtl material_1_0
f 3//7 2//8 1//7
f 4//8 1//7 2//8
f 3//5 5//5 2//5
f 1//7 6//12 3//7
f 1//3 4//3 7//3
f 2//8 8//9 4//8
f 5//5 9//5 2//5
f 10//5 5//5 3//5
f 11//12 3//7 6//12
f 6//3 1//3 12//3
f 7//3 4//3 13//3
f 12//3 1//3 7//3
f 14//9 4//8 8//9
f 2//5 9//5 8//5
f 9//1 5//2 13//1
f 5//2 10//6 7//2
f 11//5 10//5 3//5
f 6//12 15//17 11//12
f 16//3 6//3 12//3
f 4//3 14//3 13//3
f 7//2 13//1 5//2
f 12//6 7//2 10//6
f 8//9 17//13 14//9
f 9//5 18//5 8//5
f 13//1 19//4 9//1
f 20//5 10//5 11//5
f 21//17 11//12 15//17
f 15//3 6//3 16//3
f 16//11 12//6 20//11
f 13//3 14//3 19//3
f 10//6 20//11 12//6
f 22//13 14//9 17//13
f 8//5 18//5 17//5
f 18//4 9//1 19//4
f 21//5 20//5 11//5
f 21//17 15//17 23//21
f 24//3 15//3 16//3
f 20//11 25//16 16//11
f 14//3 22//3 19//3
f 17//13 26//15 22//13
f 18//5 27//5 17//5
f 19//4 28//10 18//4
f 25//5 20//5 21//5
f 29//21 23//21 15//17
f 23//5 25//5 21//5
f 29//3 15//3 24//3
f 24//16 16//11 25//16
f 19//3 22//3 28//3
f 30//15 22//13 26//15
f 17//5 27//5 26//5
f 27//10 18//4 28//10
f 23//21 29//21 31//25
f 32//5 25//5 23//5
f 33//3 29//3 24//3
f 24//16 25//16 33//20
f 22//3 30//3 28//3
f 30//15 26//15 34//19
f 27//5 35//5 26//5
f 27//10 28//10 35//14
f 36//25 31//25 29//21
f 31//5 32//5 23//5
f 32//20 33//20 25//16
f 36//3 29//3 33//3
f 28//3 30//3 37//3
f 38//19 34//19 26//15
f 30//3 34//3 37//3
f 26//5 35//5 38//5
f 37//14 35//14 28//10
f 31//25 36//25 39//26
f 40//5 32//5 31//5
f 33//20 32//20 41//24
f 41//3 36//3 33//3
f 34//19 38//19 42//23
f 37//3 34//3 43//3
f 35//5 44//5 38//5
f 35//14 37//14 44//18
f 45//26 39//26 36//25
f 39//5 40//5 31//5
f 40//24 41//24 32//20
f 45//3 36//3 41//3
f 46//23 42//23 38//19
f 34//3 42//3 43//3
f 43//18 44//18 37//14
f 38//5 44//5 46//5
f 39//26 45//26 40//24
f 41//24 40//24 45//26
f 42//23 46//23 47//22
f 47//3 43//3 42//3
f 44//18 43//18 48//22
f 48//5 46//5 44//5
f 48//22 47//22 46//23
f 47//22 48//22 43//18
