# SSTK version 0.8.0
# 13
mtllib original-13.mtl
o mesh12/mesh12-geometry#mesh12-geometry
v -0.018109 -0.805524 -0.108493
v -0.031204 -0.793647 -0.106439
v -0.031276 -0.805524 -0.107785
v -0.018036 -0.793647 -0.107147
v -0.031276 -0.781770 -0.107785
v -0.031488 -0.816591 -0.111731
v -0.018109 -0.781770 -0.108493
v -0.031488 -0.770702 -0.111731
v -0.018321 -0.816591 -0.112439
v -0.018321 -0.770702 -0.112439
v -0.031826 -0.826095 -0.118009
v -0.031826 -0.761198 -0.118009
v -0.018658 -0.761198 -0.118717
v -0.018658 -0.826095 -0.118717
v -0.019098 -0.833388 -0.126898
v -0.032266 -0.753906 -0.126190
v -0.019098 -0.753906 -0.126898
v -0.032266 -0.833388 -0.126190
v -0.019610 -0.837972 -0.136425
v -0.019610 -0.749321 -0.136425
v -0.032778 -0.749321 -0.135717
v -0.032778 -0.837972 -0.135717
v -0.020160 -0.839536 -0.146649
v -0.033328 -0.747758 -0.145941
v -0.020160 -0.747758 -0.146649
v -0.033328 -0.839536 -0.145941
v -0.020710 -0.837972 -0.156873
v -0.020710 -0.749321 -0.156873
v -0.033877 -0.749321 -0.156165
v -0.033877 -0.837972 -0.156165
v -0.021222 -0.833388 -0.166401
v -0.021222 -0.753906 -0.166401
v -0.034390 -0.753906 -0.165693
v -0.034390 -0.833388 -0.165693
v -0.021662 -0.826095 -0.174582
v -0.034830 -0.761198 -0.173874
v -0.021662 -0.761198 -0.174582
v -0.034830 -0.826095 -0.173874
v -0.022000 -0.816591 -0.180859
v -0.035167 -0.770702 -0.180151
v -0.022000 -0.770702 -0.180859
v -0.035167 -0.816591 -0.180151
v -0.022212 -0.805524 -0.184806
v -0.022212 -0.781770 -0.184806
v -0.035379 -0.781770 -0.184098
v -0.035379 -0.805524 -0.184098
v -0.035452 -0.793647 -0.185444
v -0.022284 -0.793647 -0.186152
vn 0.051270996785282956 -0.2968139813896155 0.9535579402114421
vn 0.05369097844723754 0 0.9985575991565926
vn -0.9985575991565926 0 0.05369097844723754
vn 0.04460998672607737 -0.5564588344229161 0.8296767531255703
vn 0.9985575991565926 0 -0.05369097844723754
vn 0.051270996785282956 0.2968139813896155 0.9535579402114421
vn 0.04460998672607737 0.5564588344229161 0.8296767531255703
vn 0.03505699485796306 -0.7574098889057765 0.6519979043672363
vn 0.03505699485796306 0.7574098889057765 0.6519979043672363
vn 0.0239229952893115 -0.8952438237171084 0.44493391238784946
vn 0.0239229952893115 0.8952438237171084 0.44493391238784946
vn 0.012083998060566804 -0.9743438436217232 0.22473996393013768
vn 0.012083998060566804 0.9743438436217232 0.22473996393013768
vn 0 -1 0
vn 0 1 0
vn -0.012083998060566804 -0.9743438436217232 -0.22473996393013768
vn -0.012083998060566804 0.9743438436217232 -0.22473996393013768
vn -0.0239229952893115 -0.8952438237171084 -0.44493391238784946
vn -0.0239229952893115 0.8952438237171084 -0.44493391238784946
vn -0.03505699485796306 -0.7574098889057765 -0.6519979043672363
vn -0.03505699485796306 0.7574098889057765 -0.6519979043672363
vn -0.04460998672607737 -0.5564588344229161 -0.8296767531255703
vn -0.04460998672607737 0.5564588344229161 -0.8296767531255703
vn -0.051270996785282956 -0.2968139813896155 -0.9535579402114421
vn -0.051270996785282956 0.2968139813896155 -0.9535579402114421
vn -0.05369097844723754 0 -0.9985575991565926
usemtl material_0_0
f 1//1 2//2 3//1
f 2//2 1//1 4//2
f 5//3 3//3 2//3
f 6//4 1//1 3//1
f 1//5 7//5 4//5
f 7//6 2//2 4//2
f 8//3 3//3 5//3
f 2//2 7//6 5//6
f 1//1 6//4 9//4
f 8//3 6//3 3//3
f 9//5 7//5 1//5
f 5//6 10//7 8//7
f 10//7 5//6 7//6
f 11//8 9//4 6//4
f 12//3 6//3 8//3
f 9//5 10//5 7//5
f 13//9 8//7 10//7
f 9//4 11//8 14//8
f 12//3 11//3 6//3
f 8//7 13//9 12//9
f 9//5 13//5 10//5
f 11//8 15//10 14//8
f 14//5 13//5 9//5
f 16//3 11//3 12//3
f 17//11 12//9 13//9
f 15//10 11//8 18//10
f 15//5 17//5 14//5
f 14//5 17//5 13//5
f 16//3 18//3 11//3
f 12//9 17//11 16//11
f 18//10 19//12 15//10
f 15//5 20//5 17//5
f 21//3 18//3 16//3
f 20//13 16//11 17//11
f 19//12 18//10 22//12
f 19//5 20//5 15//5
f 21//3 22//3 18//3
f 16//11 20//13 21//13
f 22//12 23//14 19//12
f 23//5 20//5 19//5
f 24//3 22//3 21//3
f 25//15 21//13 20//13
f 23//14 22//12 26//14
f 23//5 25//5 20//5
f 24//3 26//3 22//3
f 21//13 25//15 24//15
f 26//14 27//16 23//14
f 23//5 28//5 25//5
f 29//3 26//3 24//3
f 28//17 24//15 25//15
f 27//16 26//14 30//16
f 27//5 28//5 23//5
f 29//3 30//3 26//3
f 24//15 28//17 29//17
f 30//16 31//18 27//16
f 27//5 32//5 28//5
f 33//3 30//3 29//3
f 32//19 29//17 28//17
f 31//18 30//16 34//18
f 31//5 32//5 27//5
f 33//3 34//3 30//3
f 29//17 32//19 33//19
f 34//18 35//20 31//18
f 35//5 32//5 31//5
f 36//3 34//3 33//3
f 37//21 33//19 32//19
f 35//20 34//18 38//20
f 35//5 37//5 32//5
f 36//3 38//3 34//3
f 33//19 37//21 36//21
f 38//20 39//22 35//20
f 39//5 37//5 35//5
f 40//3 38//3 36//3
f 41//23 36//21 37//21
f 39//22 38//20 42//22
f 39//5 41//5 37//5
f 40//3 42//3 38//3
f 36//21 41//23 40//23
f 42//22 43//24 39//22
f 39//5 44//5 41//5
f 45//3 42//3 40//3
f 41//23 45//25 40//23
f 43//24 42//22 46//24
f 43//5 44//5 39//5
f 45//25 41//23 44//25
f 45//3 46//3 42//3
f 47//26 43//24 46//24
f 44//5 43//5 48//5
f 44//25 47//26 45//25
f 46//3 45//3 47//3
f 43//24 47//26 48//26
f 47//26 44//25 48//26
usemtl material_1_0
f 3//25 2//26 1//25
f 4//26 1//25 2//26
f 2//5 3//5 5//5
f 3//25 1//25 6//23
f 4//3 7//3 1//3
f 4//26 2//26 7//24
f 5//5 3//5 8//5
f 5//24 7//24 2//26
f 9//23 6//23 1//25
f 3//5 6//5 8//5
f 1//3 7//3 9//3
f 8//22 10//22 5//24
f 7//24 5//24 10//22
f 6//23 9//23 11//21
f 8//5 6//5 12//5
f 7//3 10//3 9//3
f 10//22 8//22 13//20
f 14//21 11//21 9//23
f 6//5 11//5 12//5
f 12//20 13//20 8//22
f 10//3 13//3 9//3
f 14//21 15//19 11//21
f 9//3 13//3 14//3
f 12//5 11//5 16//5
f 13//20 12//20 17//18
f 18//19 11//21 15//19
f 14//3 17//3 15//3
f 13//3 17//3 14//3
f 11//5 18//5 16//5
f 16//18 17//18 12//20
f 15//19 19//17 18//19
f 17//3 20//3 15//3
f 16//5 18//5 21//5
f 17//18 16//18 20//16
f 22//17 18//19 19//17
f 15//3 20//3 19//3
f 18//5 22//5 21//5
f 21//16 20//16 16//18
f 19//17 23//15 22//17
f 19//3 20//3 23//3
f 21//5 22//5 24//5
f 20//16 21//16 25//14
f 26//15 22//17 23//15
f 20//3 25//3 23//3
f 22//5 26//5 24//5
f 24//14 25//14 21//16
f 23//15 27//13 26//15
f 25//3 28//3 23//3
f 24//5 26//5 29//5
f 25//14 24//14 28//12
f 30//13 26//15 27//13
f 23//3 28//3 27//3
f 26//5 30//5 29//5
f 29//12 28//12 24//14
f 27//13 31//11 30//13
f 28//3 32//3 27//3
f 29//5 30//5 33//5
f 28//12 29//12 32//10
f 34//11 30//13 31//11
f 27//3 32//3 31//3
f 30//5 34//5 33//5
f 33//10 32//10 29//12
f 31//11 35//9 34//11
f 31//3 32//3 35//3
f 33//5 34//5 36//5
f 32//10 33//10 37//8
f 38//9 34//11 35//9
f 32//3 37//3 35//3
f 34//5 38//5 36//5
f 36//8 37//8 33//10
f 35//9 39//7 38//9
f 35//3 37//3 39//3
f 36//5 38//5 40//5
f 37//8 36//8 41//4
f 42//7 38//9 39//7
f 37//3 41//3 39//3
f 38//5 42//5 40//5
f 40//4 41//4 36//8
f 39//7 43//6 42//7
f 41//3 44//3 39//3
f 40//5 42//5 45//5
f 40//4 45//1 41//4
f 46//6 42//7 43//6
f 39//3 44//3 43//3
f 44//1 41//4 45//1
f 42//5 46//5 45//5
f 46//6 43//6 47//2
f 48//3 43//3 44//3
f 45//1 47//2 44//1
f 47//5 45//5 46//5
f 48//2 47//2 43//6
f 48//2 44//1 47//2
