# SSTK version 0.8.0
# 31
mtllib original-31.mtl
o mesh27/mesh27-geometry#mesh27-geometry
v -0.027081 -0.569321 0.227515
v 0.008933 -0.571531 0.233264
v 0.009043 -0.569321 0.227515
v -0.026956 -0.571857 0.234111
v 0.009043 -0.633081 0.227515
v -0.027081 -0.633081 0.227515
v 0.008704 -0.571599 0.233440
v 0.008933 -0.634463 0.233264
v -0.026956 -0.634666 0.234111
v -0.000287 -0.573030 0.237164
v 0.003014 -0.691180 0.544518
v -0.021003 -0.692180 0.547120
v -0.019584 -0.573030 0.237164
v 0.003041 -0.700813 0.543105
v 0.008704 -0.634505 0.233440
v -0.021020 -0.694724 0.546199
v -0.009936 -0.573519 0.238434
v 0.003044 -0.706413 0.542922
v 0.002915 -0.693186 0.549736
v 0.003043 -0.708876 0.542991
v -0.000287 -0.635400 0.237164
v -0.021037 -0.700940 0.545305
v -0.020953 -0.693186 0.549736
v 0.002553 -0.691087 0.544276
v -0.018544 -0.691398 0.545085
v -0.019584 -0.635400 0.237164
v -0.021044 -0.709356 0.544986
v -0.020257 -0.691808 0.546153
v 0.000489 -0.690806 0.543545
v -0.019933 -0.691682 0.545825
v -0.009936 -0.635705 0.238434
v 0.002915 -0.710497 0.549736
v -0.002670 -0.690455 0.542632
v -0.001137 -0.708520 0.541509
v -0.020953 -0.710497 0.549736
v -0.007611 -0.690295 0.542217
v -0.014767 -0.690706 0.543285
v -0.015249 -0.690769 0.543450
v -0.020955 -0.709338 0.544911
v -0.015479 -0.708648 0.542042
v -0.002875 -0.708437 0.541161
v -0.008689 -0.690275 0.542165
v -0.016619 -0.708744 0.542441
v -0.008255 -0.708347 0.540786
v -0.008939 -0.690281 0.542180
v -0.009799 -0.708372 0.540892
vn -0.7045798078660446 0.6577808206277991 0.266254927394155
vn 0.7045798078660446 0.6577808206277991 0.266254927394155
vn 0.7085539735029163 -0.6890739742313902 -0.15207999431281666
vn -0.7085539735029163 -0.6890739742313902 -0.15207999431281666
vn 0 0.9334106681627655 0.3588098724393455
vn 0.9998192174821996 0 0.01901400413595515
vn -0.9998192174821996 0 0.01901400413595515
vn 0.5149811200779042 0.48077611210233867 0.709682165476255
vn 0 -0.9723306409951746 -0.2336089137466992
vn -0.5149811200779042 0.48077611210233867 0.709682165476255
vn 0.6246519240348347 -0.6074779261233988 0.4906939403257321
vn -0.6246519240348347 -0.6074779261233988 0.4906939403257321
vn -0.7045798078660446 -0.6577808206277991 -0.266254927394155
vn 0.7045798078660446 -0.6577808206277991 -0.266254927394155
vn -0.7085539735029163 0.6890739742313902 0.15207999431281666
vn 0.7085539735029163 0.6890739742313902 0.15207999431281666
vn 0 -0.9334106681627655 -0.3588098724393455
vn -0.9998192174821996 0 -0.01901400413595515
vn 0 0.9723306409951746 0.2336089137466992
vn 0.9998192174821996 0 -0.01901400413595515
vn -0.5149811200779042 -0.48077611210233867 -0.709682165476255
vn 0.5149811200779042 -0.48077611210233867 -0.709682165476255
vn -0.6246519240348347 0.6074779261233988 -0.4906939403257321
vn 0.6246519240348347 0.6074779261233988 -0.4906939403257321
usemtl material_0_0
f 1//1 2//2 3//2
f 2//2 1//1 4//1
f 2//2 5//3 3//2
f 6//4 4//1 1//1
f 2//2 4//1 7//5
f 5//3 2//2 8//3
f 4//1 6//4 9//4
f 7//5 4//1 10//5
f 7//5 11//2 2//2
f 11//2 8//3 2//2
f 9//4 12//1 4//1
f 10//5 4//1 13//5
f 11//2 7//5 10//5
f 14//6 8//3 11//2
f 9//4 16//7 12//1
f 12//1 13//5 4//1
f 10//5 13//5 17//5
f 11//2 10//5 17//5
f 18//6 8//3 14//6
f 19//8 14//6 11//2
f 20//3 15//9 8//3
f 9//4 22//7 16//7
f 16//7 23//10 12//1
f 13//5 12//1 17//5
f 11//2 17//5 24//5
f 8//3 18//6 20//3
f 19//8 18//6 14//6
f 11//2 25//5 19//8
f 15//9 20//3 21//9
f 22//7 9//4 27//4
f 22//7 23//10 16//7
f 19//8 12//1 23//10
f 17//5 12//1 28//5
f 24//5 17//5 29//5
f 24//5 25//5 11//2
f 19//8 20//3 18//6
f 19//8 25//5 30//5
f 21//9 20//3 31//9
f 26//9 27//4 9//4
f 27//4 23//10 22//7
f 19//8 28//5 12//1
f 17//5 28//5 30//5
f 29//5 17//5 33//5
f 29//5 25//5 24//5
f 20//3 19//8 32//11
f 17//5 30//5 25//5
f 19//8 30//5 28//5
f 31//9 20//3 34//9
f 27//4 26//9 31//9
f 23//10 27//4 35//12
f 33//5 17//5 36//5
f 33//5 37//5 29//5
f 29//5 38//5 25//5
f 17//5 25//5 38//5
f 31//9 34//9 41//9
f 27//4 31//9 39//9
f 36//5 17//5 42//5
f 36//5 37//5 33//5
f 29//5 37//5 38//5
f 17//5 38//5 37//5
f 31//9 41//9 44//9
f 39//9 31//9 43//9
f 17//5 45//5 42//5
f 45//5 36//5 42//5
f 36//5 45//5 37//5
f 17//5 37//5 45//5
f 43//9 31//9 40//9
f 46//9 31//9 44//9
f 40//9 31//9 46//9
usemtl material_1_0
f 3//13 2//13 1//14
f 4//14 1//14 2//13
f 3//13 5//15 2//13
f 1//14 4//14 6//16
f 7//17 4//14 2//13
f 8//15 2//13 5//15
f 9//16 6//16 4//14
f 10//17 4//14 7//17
f 2//13 11//13 7//17
f 2//13 8//15 11//13
f 8//3 6//4 5//3
f 5//15 6//16 8//15
f 6//4 8//3 9//4
f 9//16 8//15 6//16
f 4//14 12//14 9//16
f 13//17 4//14 10//17
f 10//17 7//17 11//13
f 11//13 8//15 14//18
f 9//4 8//3 15//9
f 15//19 8//15 9//16
f 12//14 16//20 9//16
f 4//14 13//17 12//14
f 17//17 13//17 10//17
f 17//17 10//17 11//13
f 14//18 8//15 18//18
f 11//13 14//18 19//21
f 8//15 15//19 20//15
f 9//4 15//9 21//9
f 21//19 15//19 9//16
f 16//20 22//20 9//16
f 12//14 23//22 16//20
f 17//17 12//14 13//17
f 24//17 17//17 11//13
f 20//15 18//18 8//15
f 14//18 18//18 19//21
f 19//21 25//17 11//13
f 21//19 20//15 15//19
f 9//4 21//9 26//9
f 26//19 21//19 9//16
f 27//16 9//16 22//20
f 16//20 23//22 22//20
f 23//22 12//14 19//21
f 28//17 12//14 17//17
f 29//17 17//17 24//17
f 11//13 25//17 24//17
f 18//18 20//15 19//21
f 30//17 25//17 19//21
f 31//19 20//15 21//19
f 26//9 21//9 31//9
f 31//19 21//19 26//19
f 9//16 27//16 26//19
f 22//20 23//22 27//16
f 12//14 28//17 19//21
f 23//10 32//11 19//8
f 19//21 32//23 23//22
f 30//17 28//17 17//17
f 33//17 17//17 29//17
f 24//17 25//17 29//17
f 32//23 19//21 20//15
f 25//17 30//17 17//17
f 28//17 30//17 19//21
f 34//19 20//15 31//19
f 31//19 26//19 27//16
f 35//24 27//16 23//22
f 32//11 23//10 35//12
f 35//24 23//22 32//23
f 36//17 17//17 33//17
f 29//17 37//17 33//17
f 25//17 38//17 29//17
f 39//9 20//3 32//11
f 32//23 20//15 39//19
f 38//17 25//17 17//17
f 40//9 34//9 20//3
f 20//15 34//19 40//19
f 41//19 34//19 31//19
f 39//19 31//19 27//16
f 27//4 32//11 35//12
f 35//24 32//23 27//16
f 42//17 17//17 36//17
f 33//17 37//17 36//17
f 38//17 37//17 29//17
f 43//9 20//3 39//9
f 39//19 20//15 43//19
f 39//9 32//11 27//4
f 27//16 32//23 39//19
f 37//17 38//17 17//17
f 40//9 41//9 34//9
f 34//19 41//19 40//19
f 40//9 20//3 43//9
f 43//19 20//15 40//19
f 44//19 41//19 31//19
f 43//19 31//19 39//19
f 42//17 45//17 17//17
f 42//17 36//17 45//17
f 37//17 45//17 36//17
f 45//17 37//17 17//17
f 46//9 41//9 40//9
f 40//19 41//19 46//19
f 40//19 31//19 43//19
f 41//9 46//9 44//9
f 44//19 46//19 41//19
f 44//19 31//19 46//19
f 46//19 31//19 40//19
