# SSTK version 0.8.0
# 25
mtllib original-25.mtl
o GeodesicDome02_3/GeodesicDome02/mesh21/mesh21-geometry#mesh21-geometry
v 0.340410 -0.677164 0.192194
v 0.336672 -0.677164 0.196580
v 0.340410 -0.675103 0.198541
v 0.336614 -0.681060 0.190104
v 0.338100 -0.677164 0.203676
v 0.344149 -0.677164 0.196580
v 0.333436 -0.683071 0.194882
v 0.340410 -0.683071 0.186702
v 0.334267 -0.681060 0.201764
v 0.342721 -0.677164 0.203676
v 0.344207 -0.681060 0.190104
v 0.333436 -0.689896 0.188535
v 0.336672 -0.689896 0.184740
v 0.336100 -0.683071 0.208119
v 0.340410 -0.681060 0.208970
v 0.346554 -0.681060 0.201764
v 0.347385 -0.683071 0.194882
v 0.331140 -0.692027 0.193678
v 0.331125 -0.689896 0.200017
v 0.340410 -0.692027 0.182804
v 0.344149 -0.689896 0.184740
v 0.332361 -0.689896 0.206158
v 0.344721 -0.683071 0.208119
v 0.347385 -0.689896 0.188535
v 0.331125 -0.700940 0.189748
v 0.334098 -0.700516 0.184513
v 0.338100 -0.700940 0.181567
v 0.334681 -0.692027 0.211273
v 0.338411 -0.689896 0.213254
v 0.342410 -0.689896 0.213254
v 0.348460 -0.689896 0.206158
v 0.349696 -0.689896 0.200017
v 0.349681 -0.692027 0.193678
v 0.329697 -0.700940 0.196844
v 0.330196 -0.700516 0.203899
v 0.342721 -0.700940 0.181567
v 0.346723 -0.700516 0.184513
v 0.332361 -0.700940 0.210081
v 0.346140 -0.692027 0.211273
v 0.349696 -0.700940 0.189748
v 0.332361 -0.710497 0.187001
v 0.330196 -0.710921 0.193183
v 0.336100 -0.710497 0.182616
v 0.340410 -0.710921 0.181202
v 0.336100 -0.700940 0.214466
v 0.340410 -0.700516 0.215880
v 0.344721 -0.700940 0.214466
v 0.348460 -0.700940 0.210081
v 0.350625 -0.700516 0.203899
v 0.351124 -0.700940 0.196844
v 0.329697 -0.710497 0.200238
v 0.331125 -0.710497 0.207334
v 0.344721 -0.710497 0.182616
v 0.348460 -0.710497 0.187001
v 0.334098 -0.710921 0.212569
v 0.350625 -0.710921 0.193183
v 0.338100 -0.710497 0.215515
v 0.342721 -0.710497 0.215515
v 0.346723 -0.710921 0.212569
v 0.349696 -0.710497 0.207334
v 0.351124 -0.710497 0.200238
vn 0 0.8396217643479188 -0.5431715132748474
vn -0.6977521837409739 0.7024405309770374 -0.14042503525155223
vn 0 1 0
vn 0 -1 0
vn 0.6977521837409739 -0.7024405309770374 0.14042503525155223
vn 0 -0.8396217643479188 0.5431715132748474
vn -0.6494433797602005 0.5212256328006634 -0.5536669903445538
vn 0.6494433797602005 -0.5212256328006634 0.5536669903445538
vn -0.4778111602367483 0.7783099946264206 0.40734512077332397
vn 0.4778111602367483 -0.7783099946264206 -0.40734512077332397
vn 0.6977521837409739 0.7024405309770374 -0.14042503525155223
vn -0.6977521837409739 -0.7024405309770374 0.14042503525155223
vn -0.9110908345302966 0.3691781449748392 -0.18336026970918268
vn 0.9110908345302966 -0.3691781449748392 0.18336026970918268
vn 0 0.5282733475592933 -0.8490743608533341
vn 0 -0.5282733475592933 0.8490743608533341
vn -0.8816351756691887 0.4373066587675935 0.17743253145994
vn 0.8816351756691887 -0.4373066587675935 -0.17743253145994
vn 0.4778111602367483 0.7783099946264206 0.40734512077332397
vn -0.4778111602367483 -0.7783099946264206 -0.40734512077332397
vn 0.6494433797602005 0.5212256328006634 -0.5536669903445538
vn -0.6494433797602005 -0.5212256328006634 0.5536669903445538
vn -0.8534000421662238 0.24288484287022727 -0.46121071229384125
vn 0.8534000421662238 -0.24288484287022727 0.46121071229384125
vn -0.5418294951350974 0.29609697150265435 -0.7866049718051633
vn 0.5418294951350974 -0.29609697150265435 0.7866049718051633
vn -0.6809415993034766 0.44644877685677303 0.5805187576479459
vn 0.6809415993034766 -0.44644877685677303 -0.5805187576479459
vn 0 0.6058971295668815 0.7955430022208815
vn 0 -0.6058971295668815 -0.7955430022208815
vn 0.881635518436284 0.437306065410113 0.17743229071144528
vn -0.881635518436284 -0.437306065410113 -0.17743229071144528
vn 0.9110908345302966 0.3691781449748392 -0.18336026970918268
vn -0.9110908345302966 -0.3691781449748392 0.18336026970918268
vn -0.9642499169082205 0.1804530640071469 -0.1940587267631173
vn 0.9642499169082205 -0.1804530640071469 0.1940587267631173
vn -0.976169993774761 0.21017565737890756 0.05402162806808924
vn 0.976169993774761 -0.21017565737890756 -0.05402162806808924
vn 0 0.27617544945294265 -0.9611072370549839
vn 0 -0.27617544945294265 0.9611072370549839
vn 0.5418294951350974 0.29609697150265435 -0.7866049718051633
vn -0.5418294951350974 -0.29609697150265435 0.7866049718051633
vn -0.9129419268505162 0.22815417705112617 0.3383529365804148
vn 0.9129419268505162 -0.22815417705112617 -0.3383529365804148
vn 0.6809415993034766 0.44644877685677303 0.5805187576479459
vn -0.6809415993034766 -0.44644877685677303 -0.5805187576479459
vn 0.8533999446059541 0.24288528577700869 -0.46121065956846136
vn -0.8533999446059541 -0.24288528577700869 0.46121065956846136
vn -0.9389206213706726 0.06493875696380531 -0.3379512163151748
vn 0.9389206213706726 -0.06493875696380531 0.3379512163151748
vn -0.7582439665732782 0.08488023447600526 -0.6464220238748987
vn 0.7582439665732782 -0.08488023447600526 0.6464220238748987
vn -0.3271797735926129 0.09287390206641273 -0.9403870660886637
vn 0.3271797735926129 -0.09287390206641273 0.9403870660886637
vn -0.7415571087270951 0.22454691029780355 0.6321959661149551
vn 0.7415571087270951 -0.22454691029780355 -0.6321959661149551
vn -0.32890491478396455 0.3160780921974393 0.8898967337077824
vn 0.32890491478396455 -0.3160780921974393 -0.8898967337077824
vn 0.32890491478396455 0.3160780921974393 0.8898967337077824
vn -0.32890491478396455 -0.3160780921974393 -0.8898967337077824
vn 0.9129419268505162 0.22815417705112617 0.3383529365804148
vn -0.9129419268505162 -0.22815417705112617 -0.3383529365804148
vn 0.976169993774761 0.21017565737890756 0.05402162806808924
vn -0.976169993774761 -0.21017565737890756 -0.05402162806808924
vn 0.9642499169082205 0.1804530640071469 -0.1940587267631173
vn -0.9642499169082205 -0.1804530640071469 0.1940587267631173
vn -0.9962090670979568 0.059883511207296077 -0.06309880915916118
vn 0.9962090670979568 -0.059883511207296077 0.06309880915916118
vn -0.9780965155690103 0.06766929466132435 0.1968453016757049
vn 0.9780965155690103 -0.06766929466132435 -0.1968453016757049
vn 0.32717836732403616 0.09287394992044902 -0.9403875506307771
vn -0.32717836732403616 -0.09287394992044902 0.9403875506307771
vn 0.7582439665732782 0.08488023447600526 -0.6464220238748987
vn -0.7582439665732782 -0.08488023447600526 0.6464220238748987
vn -0.8723810019907426 0.07002175236317709 0.48378542925724605
vn 0.8723810019907426 -0.07002175236317709 -0.48378542925724605
vn 0.7415571087270951 0.22454691029780355 0.6321959661149551
vn -0.7415571087270951 -0.22454691029780355 -0.6321959661149551
vn 0.9389206213706726 0.06493875696380531 -0.3379512163151748
vn -0.9389206213706726 -0.06493875696380531 0.3379512163151748
vn -0.8732923148411348 -0.009007200850597646 -0.4871133370913277
vn 0.8732923148411348 0.009007200850597646 0.4871133370913277
vn -0.9803026169373735 -0.00914304046086974 -0.197289594345136
vn 0.9803026169373735 0.00914304046086974 0.197289594345136
vn -0.5837103488844538 -0.010997312219079812 -0.8118874846486707
vn 0.5837103488844538 0.010997312219079812 0.8118874846486707
vn 0 -0.014319373480881177 -0.9998974725156152
vn 0 0.014319373480881177 0.9998974725156152
vn -0.5786145156928169 0.08561097838464836 0.8110955570150723
vn 0.5786145156928169 -0.08561097838464836 -0.8110955570150723
vn 0 0.10563535230228324 0.9944049337890337
vn 0 -0.10563535230228324 -0.9944049337890337
vn 0.5786145156928169 0.08561097838464836 0.8110955570150723
vn -0.5786145156928169 -0.08561097838464836 -0.8110955570150723
vn 0.8723810019907426 0.07002175236317709 0.48378542925724605
vn -0.8723810019907426 -0.07002175236317709 -0.48378542925724605
vn 0.9780965155690103 0.06766929466132435 0.1968453016757049
vn -0.9780965155690103 -0.06766929466132435 -0.1968453016757049
vn 0.9962090670979568 0.059883511207296077 -0.06309880915916118
vn -0.9962090670979568 -0.059883511207296077 0.06309880915916118
vn -0.9978551255010373 -0.007690083478649721 0.06500777743778559
vn 0.9978551255010373 0.007690083478649721 -0.06500777743778559
vn -0.9415886841012484 -0.008332715669156443 0.3366620201657094
vn 0.9415886841012484 0.008332715669156443 -0.3366620201657094
vn 0.5837103488844538 -0.010997312219079812 -0.8118874846486707
vn -0.5837103488844538 0.010997312219079812 0.8118874846486707
vn 0.8732923148411348 -0.009007200850597646 -0.4871133370913277
vn -0.8732923148411348 0.009007200850597646 0.4871133370913277
vn -0.7609403436547539 -0.01148334583211627 0.6487202217960261
vn 0.7609403436547539 0.01148334583211627 -0.6487202217960261
vn 0.980302613647653 -0.009143407458425064 -0.19728959368306734
vn -0.980302613647653 0.009143407458425064 0.19728959368306734
vn -0.32445826375407555 -0.011964818620325977 0.9458243379174979
vn 0.32445826375407555 0.011964818620325977 -0.9458243379174979
vn 0.32445826375407555 -0.011964818620325977 0.9458243379174979
vn -0.32445826375407555 0.011964818620325977 -0.9458243379174979
vn 0.7609403436547539 -0.01148334583211627 0.6487202217960261
vn -0.7609403436547539 0.01148334583211627 -0.6487202217960261
vn 0.9415886841012484 -0.008332715669156443 0.3366620201657094
vn -0.9415886841012484 0.008332715669156443 -0.3366620201657094
vn 0.9978551255010373 -0.007690083478649721 0.06500777743778559
vn -0.9978551255010373 0.007690083478649721 -0.06500777743778559
usemtl material_0_0
f 1//1 2//2 3//3
f 3//4 2//5 1//6
f 4//7 2//2 1//1
f 1//6 2//5 4//8
f 2//2 5//9 3//3
f 3//4 5//10 2//5
f 1//1 3//3 6//11
f 6//12 3//4 1//6
f 4//7 7//13 2//2
f 2//5 7//14 4//8
f 8//15 4//7 1//1
f 1//6 4//8 8//16
f 2//2 9//17 5//9
f 5//10 9//18 2//5
f 3//3 5//9 10//19
f 10//20 5//10 3//4
f 6//11 3//3 10//19
f 10//20 3//4 6//12
f 11//21 1//1 6//11
f 6//12 1//6 11//22
f 12//23 7//13 4//7
f 4//8 7//14 12//24
f 7//13 9//17 2//2
f 2//5 9//18 7//14
f 13//25 4//7 8//15
f 8//16 4//8 13//26
f 8//15 1//1 11//21
f 11//22 1//6 8//16
f 9//17 14//27 5//9
f 5//10 14//28 9//18
f 10//19 5//9 15//29
f 15//30 5//10 10//20
f 6//11 10//19 16//31
f 16//32 10//20 6//12
f 11//21 6//11 17//33
f 17//34 6//12 11//22
f 7//13 12//23 18//35
f 18//36 12//24 7//14
f 13//25 12//23 4//7
f 4//8 12//24 13//26
f 9//17 7//13 19//37
f 19//38 7//14 9//18
f 13//25 8//15 20//39
f 20//40 8//16 13//26
f 21//41 8//15 11//21
f 11//22 8//16 21//42
f 9//17 22//43 14//27
f 14//28 22//44 9//18
f 5//9 14//27 15//29
f 15//30 14//28 5//10
f 10//19 15//29 23//45
f 23//46 15//30 10//20
f 16//31 10//19 23//45
f 23//46 10//20 16//32
f 17//33 6//11 16//31
f 16//32 6//12 17//34
f 24//47 11//21 17//33
f 17//34 11//22 24//48
f 12//23 25//49 18//35
f 18//36 25//50 12//24
f 7//13 18//35 19//37
f 19//38 18//36 7//14
f 12//23 13//25 26//51
f 26//52 13//26 12//24
f 9//17 19//37 22//43
f 22//44 19//38 9//18
f 8//15 21//41 20//39
f 20//40 21//42 8//16
f 13//25 20//39 27//53
f 27//54 20//40 13//26
f 21//41 11//21 24//47
f 24//48 11//22 21//42
f 22//43 28//55 14//27
f 14//28 28//56 22//44
f 14//27 29//57 15//29
f 15//30 29//58 14//28
f 23//45 15//29 30//59
f 30//60 15//30 23//46
f 16//31 23//45 31//61
f 31//62 23//46 16//32
f 16//31 32//63 17//33
f 17//34 32//64 16//32
f 17//33 33//65 24//47
f 24//48 33//66 17//34
f 12//23 26//51 25//49
f 25//50 26//52 12//24
f 18//35 25//49 34//67
f 34//68 25//50 18//36
f 19//37 18//35 34//67
f 34//68 18//36 19//38
f 26//51 13//25 27//53
f 27//54 13//26 26//52
f 19//37 35//69 22//43
f 22//44 35//70 19//38
f 20//39 21//41 36//71
f 36//72 21//42 20//40
f 27//53 20//39 36//71
f 36//72 20//40 27//54
f 21//41 24//47 37//73
f 37//74 24//48 21//42
f 22//43 38//75 28//55
f 28//56 38//76 22//44
f 28//55 29//57 14//27
f 14//28 29//58 28//56
f 29//57 30//59 15//29
f 15//30 30//60 29//58
f 30//59 39//77 23//45
f 23//46 39//78 30//60
f 31//61 23//45 39//77
f 39//78 23//46 31//62
f 16//31 31//61 32//63
f 32//64 31//62 16//32
f 17//33 32//63 33//65
f 33//66 32//64 17//34
f 24//47 33//65 40//79
f 40//80 33//66 24//48
f 26//51 41//81 25//49
f 25//50 41//82 26//52
f 25//49 42//83 34//67
f 34//68 42//84 25//50
f 19//37 34//67 35//69
f 35//70 34//68 19//38
f 26//51 27//53 43//85
f 43//86 27//54 26//52
f 22//43 35//69 38//75
f 38//76 35//70 22//44
f 36//71 21//41 37//73
f 37//74 21//42 36//72
f 27//53 36//71 44//87
f 44//88 36//72 27//54
f 24//47 40//79 37//73
f 37//74 40//80 24//48
f 38//75 45//89 28//55
f 28//56 45//90 38//76
f 28//55 45//89 29//57
f 29//58 45//90 28//56
f 29//57 46//91 30//59
f 30//60 46//92 29//58
f 30//59 47//93 39//77
f 39//78 47//94 30//60
f 31//61 39//77 48//95
f 48//96 39//78 31//62
f 31//61 49//97 32//63
f 32//64 49//98 31//62
f 32//63 50//99 33//65
f 33//66 50//100 32//64
f 33//65 50//99 40//79
f 40//80 50//100 33//66
f 41//81 26//51 43//85
f 43//86 26//52 41//82
f 25//49 41//81 42//83
f 42//84 41//82 25//50
f 34//67 42//83 51//101
f 51//102 42//84 34//68
f 35//69 34//67 51//101
f 51//102 34//68 35//70
f 43//85 27//53 44//87
f 44//88 27//54 43//86
f 35//69 52//103 38//75
f 38//76 52//104 35//70
f 36//71 37//73 53//105
f 53//106 37//74 36//72
f 44//87 36//71 53//105
f 53//106 36//72 44//88
f 37//73 40//79 54//107
f 54//108 40//80 37//74
f 38//75 55//109 45//89
f 45//90 55//110 38//76
f 45//89 46//91 29//57
f 29//58 46//92 45//90
f 46//91 47//93 30//59
f 30//60 47//94 46//92
f 47//93 48//95 39//77
f 39//78 48//96 47//94
f 31//61 48//95 49//97
f 49//98 48//96 31//62
f 32//63 49//97 50//99
f 50//100 49//98 32//64
f 40//79 50//99 56//111
f 56//112 50//100 40//80
f 35//69 51//101 52//103
f 52//104 51//102 35//70
f 38//75 52//103 55//109
f 55//110 52//104 38//76
f 53//105 37//73 54//107
f 54//108 37//74 53//106
f 40//79 56//111 54//107
f 54//108 56//112 40//80
f 55//109 57//113 45//89
f 45//90 57//114 55//110
f 45//89 57//113 46//91
f 46//92 57//114 45//90
f 46//91 58//115 47//93
f 47//94 58//116 46//92
f 47//93 59//117 48//95
f 48//96 59//118 47//94
f 49//97 48//95 60//119
f 60//120 48//96 49//98
f 49//97 61//121 50//99
f 50//100 61//122 49//98
f 50//99 61//121 56//111
f 56//112 61//122 50//100
f 57//113 58//115 46//91
f 46//92 58//116 57//114
f 58//115 59//117 47//93
f 47//94 59//118 58//116
f 48//95 59//117 60//119
f 60//120 59//118 48//96
f 49//97 60//119 61//121
f 61//122 60//120 49//98
