# SSTK version 0.8.0
# 16
mtllib original-16.mtl
o mesh15/mesh15-geometry#mesh15-geometry
v -0.397331 -0.770702 0.207159
v -0.384866 -0.761198 0.214777
v -0.392063 -0.761198 0.203727
v -0.390134 -0.770702 0.218208
v -0.385198 -0.753906 0.199256
v -0.339916 -0.770702 0.169762
v -0.400642 -0.781770 0.209316
v -0.332719 -0.770702 0.180812
v -0.378001 -0.753906 0.210305
v -0.345184 -0.761198 0.173194
v -0.336605 -0.781770 0.167605
v -0.393445 -0.781770 0.220365
v -0.329408 -0.781770 0.178655
v -0.337987 -0.761198 0.184243
v -0.344852 -0.753906 0.188715
v -0.377203 -0.749321 0.194049
v -0.352049 -0.753906 0.177665
v -0.401772 -0.793647 0.210051
v -0.335475 -0.793647 0.166870
v -0.370006 -0.749321 0.205098
v -0.328278 -0.793647 0.177919
v -0.394575 -0.793647 0.221101
v -0.352847 -0.749321 0.193922
v -0.368623 -0.747758 0.188461
v -0.360044 -0.749321 0.182872
v -0.393445 -0.805524 0.220365
v -0.336605 -0.805524 0.167605
v -0.361427 -0.747758 0.199510
v -0.400642 -0.805524 0.209316
v -0.329408 -0.805524 0.178655
v -0.390134 -0.816591 0.218208
v -0.332719 -0.816591 0.180812
v -0.339916 -0.816591 0.169762
v -0.397331 -0.816591 0.207159
v -0.384866 -0.826095 0.214777
v -0.345184 -0.826095 0.173194
v -0.392063 -0.826095 0.203727
v -0.337987 -0.826095 0.184243
v -0.385198 -0.833388 0.199256
v -0.378001 -0.833388 0.210305
v -0.344852 -0.833388 0.188715
v -0.352049 -0.833388 0.177665
v -0.377203 -0.837972 0.194049
v -0.360044 -0.837972 0.182872
v -0.370006 -0.837972 0.205098
v -0.352847 -0.837972 0.193922
v -0.368623 -0.839536 0.188461
v -0.361427 -0.839536 0.199510
vn -0.6962159331211525 0.556458946546278 0.45347195643925925
vn -0.5471180681421918 0.7574100943335396 0.3563590443836308
vn -0.37336287053084666 0.8952436895608759 0.24318491567199735
vn -0.5457760537761359 0 -0.8379310825626105
vn -0.800169914279002 0.2968139682027665 0.5211809441666702
vn 0.5457760537761359 0 0.8379310825626105
vn -0.18858799044754707 0.9743439506470444 0.12283499377810064
vn 0.6962159331211525 0.556458946546278 -0.45347195643925925
vn 0.800169914279002 0.2968139682027665 -0.5211809441666702
vn 0.5471180681421918 0.7574100943335396 -0.3563590443836308
vn -0.8379310825626105 0 0.5457760537761359
vn 0.37336287053084666 0.8952436895608759 -0.24318491567199735
vn 0.8379310825626105 0 -0.5457760537761359
vn 0 1 0
vn 0.18858799044754707 0.9743439506470444 -0.12283499377810064
vn -0.800169914279002 -0.2968139682027665 0.5211809441666702
vn 0.800169914279002 -0.2968139682027665 -0.5211809441666702
vn -0.6962159331211525 -0.556458946546278 0.45347195643925925
vn 0.6962159331211525 -0.556458946546278 -0.45347195643925925
vn -0.5471180681421918 -0.7574100943335396 0.3563590443836308
vn 0.5471180681421918 -0.7574100943335396 -0.3563590443836308
vn -0.37336287053084666 -0.8952436895608759 0.24318491567199735
vn 0.37336287053084666 -0.8952436895608759 -0.24318491567199735
vn -0.18858799044754707 -0.9743439506470444 0.12283499377810064
vn 0.18858799044754707 -0.9743439506470444 -0.12283499377810064
vn 0 -1 0
usemtl material_0_0
f 1//1 2//2 3//2
f 2//2 1//1 4//1
f 2//2 5//3 3//2
f 6//4 1//4 3//4
f 7//5 4//1 1//1
f 4//6 8//6 2//6
f 5//3 2//2 9//3
f 10//4 3//4 5//4
f 11//4 1//4 6//4
f 6//4 3//4 10//4
f 4//1 7//5 12//5
f 11//4 7//4 1//4
f 4//6 13//6 8//6
f 2//6 8//6 14//6
f 2//6 15//6 9//6
f 9//3 16//7 5//3
f 10//4 5//4 17//4
f 6//8 13//9 11//9
f 10//10 8//8 6//8
f 18//11 12//5 7//5
f 12//6 13//6 4//6
f 19//4 7//4 11//4
f 13//9 6//8 8//8
f 8//8 10//10 14//10
f 2//6 14//6 15//6
f 9//6 15//6 20//6
f 16//7 9//3 20//7
f 17//4 5//4 16//4
f 15//12 10//10 17//12
f 21//13 11//9 13//9
f 12//5 18//11 22//11
f 19//4 18//4 7//4
f 12//6 21//6 13//6
f 11//9 21//13 19//13
f 10//10 15//12 14//10
f 20//6 15//6 23//6
f 20//7 24//14 16//7
f 17//4 16//4 25//4
f 17//12 23//15 15//12
f 18//11 26//16 22//11
f 22//6 21//6 12//6
f 27//4 18//4 19//4
f 21//13 27//17 19//13
f 20//6 23//6 28//6
f 24//14 20//7 28//14
f 25//4 16//4 24//4
f 23//15 17//12 25//15
f 26//16 18//11 29//16
f 26//6 30//6 22//6
f 22//6 30//6 21//6
f 27//4 29//4 18//4
f 27//17 21//13 30//17
f 25//15 28//14 23//15
f 28//14 25//15 24//14
f 29//16 31//18 26//16
f 26//6 32//6 30//6
f 33//4 29//4 27//4
f 30//17 33//19 27//17
f 31//18 29//16 34//18
f 31//6 32//6 26//6
f 33//19 30//17 32//19
f 33//4 34//4 29//4
f 34//18 35//20 31//18
f 35//6 32//6 31//6
f 32//19 36//21 33//19
f 36//4 34//4 33//4
f 35//20 34//18 37//20
f 35//6 38//6 32//6
f 36//21 32//19 38//21
f 36//4 37//4 34//4
f 39//22 35//20 37//20
f 40//6 38//6 35//6
f 41//23 36//21 38//21
f 42//4 37//4 36//4
f 35//20 39//22 40//22
f 42//4 39//4 37//4
f 40//6 41//6 38//6
f 36//21 41//23 42//23
f 43//24 40//22 39//22
f 44//4 39//4 42//4
f 45//6 41//6 40//6
f 46//25 42//23 41//23
f 40//22 43//24 45//24
f 44//4 43//4 39//4
f 42//23 46//25 44//25
f 45//6 46//6 41//6
f 47//26 45//24 43//24
f 43//4 44//4 47//4
f 48//26 44//25 46//25
f 46//6 45//6 48//6
f 45//24 47//26 48//26
f 44//25 48//26 47//26
usemtl material_1_0
f 3//21 2//21 1//19
f 4//19 1//19 2//21
f 3//21 5//23 2//21
f 3//6 1//6 6//6
f 1//19 4//19 7//17
f 2//4 8//4 4//4
f 9//23 2//21 5//23
f 5//6 3//6 10//6
f 6//6 1//6 11//6
f 10//6 3//6 6//6
f 12//17 7//17 4//19
f 1//6 7//6 11//6
f 8//4 13//4 4//4
f 14//4 8//4 2//4
f 9//4 15//4 2//4
f 5//23 16//25 9//23
f 17//6 5//6 10//6
f 11//16 13//16 6//18
f 6//18 8//18 10//20
f 7//17 12//17 18//13
f 4//4 13//4 12//4
f 11//6 7//6 19//6
f 8//18 6//18 13//16
f 14//20 10//20 8//18
f 15//4 14//4 2//4
f 20//4 15//4 9//4
f 20//25 9//23 16//25
f 16//6 5//6 17//6
f 17//22 10//20 15//22
f 13//16 11//16 21//11
f 22//13 18//13 12//17
f 7//6 18//6 19//6
f 13//4 21//4 12//4
f 19//11 21//11 11//16
f 14//20 15//22 10//20
f 23//4 15//4 20//4
f 16//25 24//26 20//25
f 25//6 16//6 17//6
f 15//22 23//24 17//22
f 22//13 26//9 18//13
f 12//4 21//4 22//4
f 19//6 18//6 27//6
f 19//11 27//5 21//11
f 28//4 23//4 20//4
f 28//26 20//25 24//26
f 24//6 16//6 25//6
f 25//24 17//22 23//24
f 29//9 18//13 26//9
f 22//4 30//4 26//4
f 21//4 30//4 22//4
f 18//6 29//6 27//6
f 30//5 21//11 27//5
f 23//24 28//26 25//24
f 24//26 25//24 28//26
f 26//9 31//8 29//9
f 30//4 32//4 26//4
f 27//6 29//6 33//6
f 27//5 33//1 30//5
f 34//8 29//9 31//8
f 26//4 32//4 31//4
f 32//1 30//5 33//1
f 29//6 34//6 33//6
f 31//8 35//10 34//8
f 31//4 32//4 35//4
f 33//1 36//2 32//1
f 33//6 34//6 36//6
f 37//10 34//8 35//10
f 32//4 38//4 35//4
f 38//2 32//1 36//2
f 34//6 37//6 36//6
f 37//10 35//10 39//12
f 35//4 38//4 40//4
f 38//2 36//2 41//3
f 36//6 37//6 42//6
f 40//12 39//12 35//10
f 37//6 39//6 42//6
f 38//4 41//4 40//4
f 42//3 41//3 36//2
f 39//12 40//12 43//15
f 42//6 39//6 44//6
f 40//4 41//4 45//4
f 41//3 42//3 46//7
f 45//15 43//15 40//12
f 39//6 43//6 44//6
f 44//7 46//7 42//3
f 41//4 46//4 45//4
f 43//15 45//15 47//14
f 47//6 44//6 43//6
f 46//7 44//7 48//14
f 48//4 45//4 46//4
f 48//14 47//14 45//15
f 47//14 48//14 44//7
