# SSTK version 0.8.0
# 14
mtllib original-14.mtl
o mesh13/mesh13-geometry#mesh13-geometry
v -0.355612 -0.837972 0.227197
v -0.354230 -0.839536 0.210559
v -0.347033 -0.839536 0.221609
v -0.362809 -0.837972 0.216147
v -0.345650 -0.837972 0.204971
v -0.338453 -0.837972 0.216021
v -0.363607 -0.833388 0.232404
v -0.330459 -0.833388 0.210813
v -0.370804 -0.833388 0.221355
v -0.337655 -0.833388 0.199764
v -0.370472 -0.826095 0.236876
v -0.323593 -0.826095 0.206342
v -0.330790 -0.826095 0.195292
v -0.377669 -0.826095 0.225826
v -0.382937 -0.816591 0.229257
v -0.318325 -0.816591 0.202911
v -0.375740 -0.816591 0.240307
v -0.325522 -0.816591 0.191861
v -0.386248 -0.805524 0.231414
v -0.379051 -0.805524 0.242464
v -0.315014 -0.805524 0.200754
v -0.322211 -0.805524 0.189704
v -0.387378 -0.793647 0.232150
v -0.380181 -0.793647 0.243199
v -0.313884 -0.793647 0.200018
v -0.321081 -0.793647 0.188969
v -0.379051 -0.781770 0.242464
v -0.322211 -0.781770 0.189704
v -0.386248 -0.781770 0.231414
v -0.315014 -0.781770 0.200754
v -0.375740 -0.770702 0.240307
v -0.325522 -0.770702 0.191861
v -0.382937 -0.770702 0.229257
v -0.318325 -0.770702 0.202911
v -0.370472 -0.761198 0.236876
v -0.330790 -0.761198 0.195292
v -0.377669 -0.761198 0.225826
v -0.323593 -0.761198 0.206342
v -0.370804 -0.753906 0.221355
v -0.330459 -0.753906 0.210813
v -0.363607 -0.753906 0.232404
v -0.337655 -0.753906 0.199764
v -0.362809 -0.749321 0.216147
v -0.355612 -0.749321 0.227197
v -0.338453 -0.749321 0.216021
v -0.345650 -0.749321 0.204971
v -0.354230 -0.747758 0.210559
v -0.347033 -0.747758 0.221609
vn -0.18858799044754707 -0.9743439506470444 0.12283499377810064
vn 0 -1 0
vn 0.18858799044754707 -0.9743439506470444 -0.12283499377810064
vn 0.5457760537761359 0 0.8379310825626105
vn -0.37336287053084666 -0.8952436895608759 0.24318491567199735
vn -0.5457760537761359 0 -0.8379310825626105
vn 0.37336287053084666 -0.8952436895608759 -0.24318491567199735
vn -0.5471180681421918 -0.7574100943335396 0.3563590443836308
vn 0.5471180681421918 -0.7574100943335396 -0.3563590443836308
vn -0.6962159331211525 -0.556458946546278 0.45347195643925925
vn 0.6962159331211525 -0.556458946546278 -0.45347195643925925
vn -0.800169914279002 -0.2968139682027665 0.5211809441666702
vn 0.800169914279002 -0.2968139682027665 -0.5211809441666702
vn -0.8379310825626105 0 0.5457760537761359
vn 0.8379310825626105 0 -0.5457760537761359
vn -0.800169914279002 0.2968139682027665 0.5211809441666702
vn 0.800169914279002 0.2968139682027665 -0.5211809441666702
vn -0.6962159331211525 0.556458946546278 0.45347195643925925
vn 0.6962159331211525 0.556458946546278 -0.45347195643925925
vn -0.5471180681421918 0.7574100943335396 0.3563590443836308
vn 0.5471180681421918 0.7574100943335396 -0.3563590443836308
vn -0.37336287053084666 0.8952436895608759 0.24318491567199735
vn 0.37336287053084666 0.8952436895608759 -0.24318491567199735
vn -0.18858799044754707 0.9743439506470444 0.12283499377810064
vn 0.18858799044754707 0.9743439506470444 -0.12283499377810064
vn 0 1 0
usemtl material_0_0
f 1//1 2//2 3//2
f 2//2 1//1 4//1
f 5//3 3//2 2//2
f 6//4 1//4 3//4
f 7//5 4//1 1//1
f 4//6 5//6 2//6
f 3//2 5//3 6//3
f 1//4 6//4 8//4
f 4//1 7//5 9//5
f 1//4 8//4 7//4
f 5//6 4//6 9//6
f 10//7 6//3 5//3
f 6//3 10//7 8//7
f 11//8 9//5 7//5
f 7//4 8//4 12//4
f 5//6 9//6 10//6
f 13//9 8//7 10//7
f 9//5 11//8 14//8
f 7//4 12//4 11//4
f 8//7 13//9 12//9
f 10//6 9//6 14//6
f 10//6 14//6 13//6
f 11//8 15//10 14//8
f 11//4 12//4 16//4
f 13//9 16//11 12//9
f 13//6 14//6 15//6
f 15//10 11//8 17//10
f 11//4 16//4 17//4
f 16//11 13//9 18//11
f 13//6 15//6 18//6
f 17//10 19//12 15//10
f 17//4 16//4 20//4
f 18//11 21//13 16//11
f 18//6 15//6 19//6
f 19//12 17//10 20//12
f 20//4 16//4 21//4
f 21//13 18//11 22//13
f 18//6 19//6 22//6
f 20//12 23//14 19//12
f 20//4 21//4 24//4
f 22//13 25//15 21//13
f 22//6 19//6 23//6
f 23//14 20//12 24//14
f 24//4 21//4 25//4
f 25//15 22//13 26//15
f 22//6 23//6 26//6
f 27//16 23//14 24//14
f 24//4 25//4 27//4
f 28//17 25//15 26//15
f 26//6 23//6 29//6
f 23//14 27//16 29//16
f 27//4 25//4 30//4
f 25//15 28//17 30//17
f 26//6 29//6 28//6
f 31//18 29//16 27//16
f 27//4 30//4 31//4
f 32//19 30//17 28//17
f 28//6 29//6 33//6
f 29//16 31//18 33//18
f 31//4 30//4 34//4
f 30//17 32//19 34//19
f 28//6 33//6 32//6
f 35//20 33//18 31//18
f 31//4 34//4 35//4
f 36//21 34//19 32//19
f 32//6 33//6 37//6
f 33//18 35//20 37//20
f 35//4 34//4 38//4
f 34//19 36//21 38//21
f 32//6 37//6 36//6
f 35//20 39//22 37//20
f 35//4 38//4 40//4
f 36//21 40//23 38//21
f 36//6 37//6 39//6
f 39//22 35//20 41//22
f 35//4 40//4 41//4
f 40//23 36//21 42//23
f 36//6 39//6 42//6
f 41//22 43//24 39//22
f 41//4 40//4 44//4
f 42//23 45//25 40//23
f 42//6 39//6 43//6
f 43//24 41//22 44//24
f 44//4 40//4 45//4
f 45//25 42//23 46//25
f 42//6 43//6 46//6
f 44//24 47//26 43//24
f 44//4 45//4 48//4
f 46//25 48//26 45//25
f 46//6 43//6 47//6
f 47//26 44//24 48//26
f 48//26 46//25 47//26
usemtl material_1_0
f 3//26 2//26 1//25
f 4//25 1//25 2//26
f 2//26 3//26 5//24
f 3//6 1//6 6//6
f 1//25 4//25 7//23
f 2//4 5//4 4//4
f 6//24 5//24 3//26
f 8//6 6//6 1//6
f 9//23 7//23 4//25
f 7//6 8//6 1//6
f 9//4 4//4 5//4
f 5//24 6//24 10//22
f 8//22 10//22 6//24
f 7//23 9//23 11//21
f 12//6 8//6 7//6
f 10//4 9//4 5//4
f 10//22 8//22 13//20
f 14//21 11//21 9//23
f 11//6 12//6 7//6
f 12//20 13//20 8//22
f 14//4 9//4 10//4
f 13//4 14//4 10//4
f 14//21 15//19 11//21
f 16//6 12//6 11//6
f 12//20 16//18 13//20
f 15//4 14//4 13//4
f 17//19 11//21 15//19
f 17//6 16//6 11//6
f 18//18 13//20 16//18
f 18//4 15//4 13//4
f 15//19 19//17 17//19
f 20//6 16//6 17//6
f 16//18 21//16 18//18
f 19//4 15//4 18//4
f 20//17 17//19 19//17
f 21//6 16//6 20//6
f 22//16 18//18 21//16
f 22//4 19//4 18//4
f 19//17 23//15 20//17
f 24//6 21//6 20//6
f 21//16 25//14 22//16
f 23//4 19//4 22//4
f 24//15 20//17 23//15
f 25//6 21//6 24//6
f 26//14 22//16 25//14
f 26//4 23//4 22//4
f 24//15 23//15 27//13
f 27//6 25//6 24//6
f 26//14 25//14 28//12
f 29//4 23//4 26//4
f 29//13 27//13 23//15
f 30//6 25//6 27//6
f 30//12 28//12 25//14
f 28//4 29//4 26//4
f 27//13 29//13 31//11
f 31//6 30//6 27//6
f 28//12 30//12 32//10
f 33//4 29//4 28//4
f 33//11 31//11 29//13
f 34//6 30//6 31//6
f 34//10 32//10 30//12
f 32//4 33//4 28//4
f 31//11 33//11 35//9
f 35//6 34//6 31//6
f 32//10 34//10 36//8
f 37//4 33//4 32//4
f 37//9 35//9 33//11
f 38//6 34//6 35//6
f 38//8 36//8 34//10
f 36//4 37//4 32//4
f 37//9 39//7 35//9
f 40//6 38//6 35//6
f 38//8 40//5 36//8
f 39//4 37//4 36//4
f 41//7 35//9 39//7
f 41//6 40//6 35//6
f 42//5 36//8 40//5
f 42//4 39//4 36//4
f 39//7 43//3 41//7
f 44//6 40//6 41//6
f 40//5 45//1 42//5
f 43//4 39//4 42//4
f 44//3 41//7 43//3
f 45//6 40//6 44//6
f 46//1 42//5 45//1
f 46//4 43//4 42//4
f 43//3 47//2 44//3
f 48//6 45//6 44//6
f 45//1 48//2 46//1
f 47//4 43//4 46//4
f 48//2 44//3 47//2
f 47//2 46//1 48//2
