# SSTK version 0.8.0
# 28
mtllib original-28.mtl
o mesh24/mesh24-geometry#mesh24-geometry
v 0.007084 -0.571857 0.168199
v 0.007210 -0.633081 0.174794
v 0.007084 -0.634666 0.168199
v 0.007210 -0.569321 0.174794
v -0.028575 -0.634505 0.168870
v 0.001131 -0.692180 -0.144811
v -0.028575 -0.571599 0.168870
v -0.019584 -0.635400 0.165145
v -0.028805 -0.634463 0.169045
v 0.001149 -0.694724 -0.143890
v 0.000386 -0.691808 -0.143844
v -0.019584 -0.573030 0.165145
v -0.028805 -0.571531 0.169045
v -0.000287 -0.635400 0.165145
v -0.011616 -0.708347 -0.138477
v -0.028914 -0.633081 0.174794
v 0.001166 -0.700940 -0.142996
v 0.001082 -0.693186 -0.147427
v 0.000061 -0.691682 -0.143516
v -0.022885 -0.691180 -0.142209
v -0.000287 -0.573030 0.165145
v -0.011182 -0.690275 -0.139856
v -0.028914 -0.569321 0.174794
v -0.009936 -0.635705 0.163875
v -0.016996 -0.708437 -0.138852
v 0.001172 -0.709356 -0.142677
v -0.001328 -0.691398 -0.142776
v -0.009936 -0.573519 0.163875
v -0.012260 -0.690295 -0.139908
v -0.010073 -0.708372 -0.138583
v -0.018734 -0.708520 -0.139199
v 0.001084 -0.709338 -0.142602
v -0.022786 -0.693186 -0.147427
v -0.004622 -0.690769 -0.141141
v -0.010932 -0.690281 -0.139871
v -0.017201 -0.690455 -0.140323
v -0.004392 -0.708648 -0.139733
v -0.022912 -0.700813 -0.140796
v -0.022425 -0.691087 -0.141967
v -0.022915 -0.708876 -0.140682
v -0.003252 -0.708744 -0.140132
v 0.001082 -0.710497 -0.147427
v -0.022786 -0.710497 -0.147427
v -0.005105 -0.690706 -0.140976
v -0.020360 -0.690806 -0.141236
v -0.022916 -0.706413 -0.140613
v -0.000431 -0.710497 -0.147427
vn 0.7045798078660446 0.6577808206277991 -0.266254927394155
vn 0.7085539735029163 -0.6890739742313902 0.15207999431281666
vn 0 0.9334106681627655 -0.3588098724393455
vn 0.9998192174821996 0 -0.01901400413595515
vn -0.7045798078660446 0.6577808206277991 -0.266254927394155
vn 0 -0.9723306409951746 0.2336089137466992
vn -0.7085539735029163 -0.6890739742313902 0.15207999431281666
vn 0.5149811200779042 0.48077611210233867 -0.709682165476255
vn -0.5149811200779042 0.48077611210233867 -0.709682165476255
vn -0.9998192174821996 0 -0.01901400413595515
vn 0.6246519240348347 -0.6074779261233988 -0.4906939403257321
vn -0.6246519240348347 -0.6074779261233988 -0.4906939403257321
vn -0.7085539735029163 0.6890739742313902 -0.15207999431281666
vn -0.7045798078660446 -0.6577808206277991 0.266254927394155
vn 0 0.9723306409951746 -0.2336089137466992
vn 0 -0.9334106681627655 0.3588098724393455
vn 0.7085539735029163 0.6890739742313902 -0.15207999431281666
vn -0.9998192174821996 0 0.01901400413595515
vn 0.7045798078660446 -0.6577808206277991 0.266254927394155
vn -0.5149811200779042 -0.48077611210233867 0.709682165476255
vn 0.5149811200779042 -0.48077611210233867 0.709682165476255
vn 0.9998192174821996 0 0.01901400413595515
vn -0.6246519240348347 0.6074779261233988 0.4906939403257321
vn 0.6246519240348347 0.6074779261233988 0.4906939403257321
vn 0 -0.7853689485799332 -0.6190279594706933
vn 0 0.7853689485799332 0.6190279594706933
usemtl material_0_0
f 1//1 2//2 3//2
f 2//2 1//1 4//1
f 3//2 6//1 1//1
f 1//1 7//3 4//1
f 3//2 10//4 6//1
f 11//3 1//1 6//1
f 1//1 12//3 7//3
f 4//1 7//3 13//5
f 5//6 15//6 8//6
f 9//7 15//6 5//6
f 3//2 17//4 10//4
f 10//4 18//8 6//1
f 1//1 11//3 19//3
f 6//1 20//5 11//3
f 21//3 12//3 1//1
f 22//3 7//3 12//3
f 22//3 13//5 7//3
f 4//1 13//5 23//5
f 15//6 3//2 14//6
f 8//6 15//6 24//6
f 16//7 13//5 9//7
f 9//7 25//6 15//6
f 17//4 3//2 26//2
f 17//4 18//8 10//4
f 18//8 20//5 6//1
f 11//3 20//5 19//3
f 1//1 19//3 27//3
f 12//3 21//3 28//3
f 1//1 22//3 21//3
f 22//3 12//3 28//3
f 29//3 13//5 22//3
f 13//5 16//7 23//5
f 15//6 14//6 24//6
f 30//6 3//2 15//6
f 20//5 9//7 13//5
f 9//7 31//6 25//6
f 3//2 32//6 26//2
f 26//2 18//8 17//4
f 20//5 18//8 33//9
f 19//3 20//5 27//3
f 1//1 27//3 34//3
f 21//3 22//3 28//3
f 1//1 35//3 22//3
f 36//3 13//5 29//3
f 35//3 29//3 22//3
f 37//6 3//2 30//6
f 38//10 9//7 20//5
f 13//5 39//3 20//5
f 31//6 9//7 40//7
f 32//6 3//2 41//6
f 18//8 26//2 42//11
f 33//9 38//10 20//5
f 27//3 20//5 34//3
f 1//1 34//3 44//3
f 1//1 44//3 35//3
f 45//3 13//5 36//3
f 35//3 36//3 29//3
f 41//6 3//2 37//6
f 46//10 9//7 38//10
f 39//3 13//5 45//3
f 34//3 20//5 39//3
f 9//7 46//10 40//7
f 40//7 33//9 43//12
f 33//9 46//10 38//10
f 34//3 36//3 44//3
f 44//3 36//3 35//3
f 34//3 45//3 36//3
f 34//3 39//3 45//3
f 33//9 40//7 46//10
usemtl material_1_0
f 3//13 2//13 1//14
f 4//14 1//14 2//13
f 5//6 3//2 2//2
f 2//13 3//13 5//15
f 1//14 6//14 3//13
f 4//14 7//16 1//14
f 8//6 3//2 5//6
f 5//15 3//13 8//15
f 5//6 2//2 9//7
f 9//17 2//13 5//15
f 6//14 10//18 3//13
f 6//14 1//14 11//16
f 7//16 12//16 1//14
f 13//19 7//16 4//14
f 8//6 14//6 3//2
f 3//13 14//15 8//15
f 8//15 15//15 5//15
f 9//7 2//2 16//7
f 16//17 2//13 9//17
f 5//15 15//15 9//17
f 10//18 17//18 3//13
f 6//14 18//20 10//18
f 19//16 11//16 1//14
f 11//16 20//19 6//14
f 1//14 12//16 21//16
f 12//16 7//16 22//16
f 7//16 13//19 22//16
f 23//19 13//19 4//14
f 14//6 8//6 24//6
f 24//15 8//15 14//15
f 14//15 3//13 15//15
f 24//15 15//15 8//15
f 9//17 13//19 16//17
f 15//15 25//15 9//17
f 26//13 3//13 17//18
f 10//18 18//20 17//18
f 6//14 20//19 18//20
f 19//16 20//19 11//16
f 27//16 19//16 1//14
f 28//16 21//16 12//16
f 21//16 22//16 1//14
f 28//16 12//16 22//16
f 22//16 13//19 29//16
f 23//19 16//17 13//19
f 24//15 14//15 15//15
f 15//15 3//13 30//15
f 13//19 9//17 20//19
f 25//15 31//15 9//17
f 25//6 30//6 15//6
f 15//15 30//15 25//15
f 26//13 32//15 3//13
f 17//18 18//20 26//13
f 33//21 18//20 20//19
f 27//16 20//19 19//16
f 34//16 27//16 1//14
f 28//16 22//16 21//16
f 22//16 35//16 1//14
f 29//16 13//19 36//16
f 22//16 29//16 35//16
f 30//15 3//13 37//15
f 20//19 9//17 38//22
f 20//19 39//16 13//19
f 40//17 9//17 31//15
f 31//6 30//6 25//6
f 25//15 30//15 31//15
f 41//15 3//13 32//15
f 40//7 26//2 32//6
f 32//15 26//13 40//17
f 42//23 26//13 18//20
f 18//8 43//12 33//9
f 33//21 43//24 18//20
f 20//19 38//22 33//21
f 34//16 20//19 27//16
f 44//16 34//16 1//14
f 35//16 44//16 1//14
f 36//16 13//19 45//16
f 29//16 36//16 35//16
f 37//15 3//13 41//15
f 31//6 37//6 30//6
f 30//15 37//15 31//15
f 38//22 9//17 46//22
f 45//16 13//19 39//16
f 39//16 20//19 34//16
f 40//17 46//22 9//17
f 40//7 41//6 31//6
f 31//15 41//15 40//17
f 40//7 32//6 41//6
f 41//15 32//15 40//17
f 40//7 42//11 26//2
f 26//13 42//23 40//17
f 47//25 18//8 42//11
f 42//23 18//20 47//26
f 43//12 18//8 47//25
f 47//26 18//20 43//24
f 43//24 33//21 40//17
f 38//22 46//22 33//21
f 44//16 36//16 34//16
f 35//16 36//16 44//16
f 36//16 45//16 34//16
f 31//6 41//6 37//6
f 37//15 41//15 31//15
f 45//16 39//16 34//16
f 46//22 40//17 33//21
f 40//7 47//25 42//11
f 42//23 47//26 40//17
f 47//25 40//7 43//12
f 43//24 40//17 47//26
